<?xml version="1.0"?>
<svg width="2048" height="2048" xmlns="http://www.w3.org/2000/svg" xmlns:svg="http://www.w3.org/2000/svg" preserveAspectRatio="xMidYMid meet" version="1.1">
 <defs>
  <symbol id="svg_153" preserveAspectRatio="xMidYMid meet" viewBox="0 0 2048 2048" xmlns="http://www.w3.org/2000/svg">
   <path d="m493,91.5c5.69,-0.95 23.23,-0.59 29.73,-0.56l55.1,0.08l202.58,-0.01l759.64,-0.02c115.3,0.69 217.05,43.32 298.03,125.41c55.98,57.02 94.41,128.9 110.74,207.1c12.83,60.3 9.19,123.35 9.19,185.14l-0.01,211.56l0.01,736.07c-0.12,15.69 -1.69,31.49 -3.87,47.02c-12.65,90.23 -53.39,174.6 -118.34,238.45c-74.33,74.38 -175.15,116.19 -280.3,116.26l-768.22,0l-210.74,0.03c-47.26,0.02 -106.59,2.6 -151.74,-5.67c-67.96,-12.31 -131.64,-41.79 -184.99,-85.65c-85.08,-70.81 -138.44,-172.6 -148.25,-282.86c-2.41,-24.55 -1.61,-52.42 -1.59,-77.41l0.03,-112.93l0,-370.74l0,-365.56l-0.02,-103.14c-0.03,-42.28 -1.32,-69.75 5.85,-111.74c12,-73.65 43.49,-142.75 91.2,-200.12c61.9,-75.48 148.54,-126.58 244.54,-144.24c22.77,-4.17 39.37,-4.36 61.43,-6.47z" fill="#000000" id="svg_1"/>
   <path d="m134.8,1058.14l0.11,-378.16l-0.07,-114.83c-0.03,-48.86 -1.61,-86.04 8.82,-134.21c21.3,-97.46 80.31,-182.53 164.15,-236.6c46.17,-29.78 98.48,-48.72 153,-55.41c27.99,-3.48 52.3,-2.81 80.43,-2.82l96.37,0.04l323.21,0l407.58,0l120.78,-0.03c48.31,-0.02 82.56,-2.09 129.89,8.17c71.6,15.39 136.99,51.77 187.81,104.5c10.55,10.91 23.65,25.57 31.78,38.18c1.43,1.75 2.02,2.03 2.73,4c5.64,6.27 13.87,19.3 18.35,26.79c25.23,41.99 41.92,88.55 49.14,137.01c4.86,32.75 4.34,57.55 4.33,90.5l-0.04,80.04l0,282.93l0.03,435.17l0.05,143.09c0.01,13.73 -0.44,28.41 0,42.06c3.61,112.53 -38.96,220.52 -123.62,295.75c-48.47,43.07 -107.84,71.99 -171.64,83.57c-34.19,6.02 -59.74,5.2 -94.25,5.2l-85.92,0l-294.18,-0.03l-448.32,-0.01l-144,0.04c-25.84,0.01 -57.52,0.9 -82.81,-0.64c-93.22,-6.49 -180.08,-49.67 -241.52,-120.09c-54.66,-62.12 -85.45,-141.05 -91.36,-223.22c-1.32,-18.31 -0.83,-39.25 -0.84,-57.79l-0.01,-88.75l0.01,-128.27c0,-21.71 -0.53,-45.77 0.11,-67.25c-1.35,-54.34 -0.03,-114.01 -0.1,-168.93z" fill="#b06ce7" id="svg_2"/>
   <path d="m821.95,423.46c6.19,-11.84 90.12,-47.54 106.94,-55.8c3.99,-1.96 15.18,-5.3 19.76,-7.17c158.92,-64.92 340.36,-74.59 505.61,-29.83c11.14,3.02 22.31,7.91 33.09,10.84l0.87,-1.08c-1,-2.15 -1.92,-4 -3.03,-6.09c5.62,4.63 12.02,9.51 16.62,15.12c6.14,3.31 1.83,-1.54 5.76,1.25c-0.74,2.09 -0.55,2.04 -1.75,3.84c48.02,8.79 94.9,22.92 139.77,42.13c20.98,10.31 33.59,17.23 53.19,30.21c57.3,42.57 89.13,86.79 100.53,159.24c4.7,48.96 0.34,81.56 -13.53,127.84c28.53,59.14 43.1,127.07 48.17,192.26c1.17,15.11 2.14,42.36 0.38,57.09c-9.12,-55.37 -21.05,-108.9 -41.31,-161.3c-5.35,-13.83 -13.13,-34.95 -20.06,-47.91c-12.8,28.67 -26.05,54.47 -43.39,80.8c-6.09,8.46 -28.15,41.61 -33.84,46.31c-3.72,4.8 -7.04,9.22 -11.23,13.64c-2.17,2.66 -5.6,6.46 -7.08,9.35c2.82,4.2 4.96,7.24 7.25,11.79c20.78,34.83 35.44,67.91 48.88,106.2c1.38,-2.35 2.9,-5.47 4.18,-7.95c6.59,-6.02 10.34,-25.17 14.71,-34.84c0.07,5.31 0.45,11.98 -0.42,17.09l-0.07,-0.48c-1.31,14.59 -2.61,29.2 -6.31,43.41c-1.83,7.03 -3.84,14.05 -3.59,21.38c-6.46,24.07 -17.91,54.48 -22.64,79.06c-1.06,-7.13 -2.69,-14.32 -3.78,-21.69c-1.85,0.9 -27.98,44.38 -29.96,48.5c-4.32,6.56 -41.56,59.89 -42.09,62.55c-2.89,1.24 -12.97,15.59 -15.66,19.16c-9.36,12.5 -19,24.8 -28.91,36.87c-2.98,3.66 -15.95,18.77 -16.9,21.61c-3.13,3.18 -21.27,23.19 -22.03,25.74c-2.92,2.05 -7.91,6.44 -8.38,10.01c-3.69,2.05 -5.55,4.18 -8.59,7.1c-5,5.8 -11.09,11.67 -16.54,17.15c-3.17,3.03 -9.73,8.11 -10.36,11.68c2.06,0.76 2.13,0.82 4.3,1.28c-2.32,-0.08 -5.43,-0.28 -7.31,0.97c-14.08,9.39 -39,36.78 -52.42,44.55c-3.05,2.63 -11.64,8.95 -13,11.3c1.54,0.6 1.41,0.67 3.02,0.89c-2.68,0.69 -4.01,0.76 -6.86,0.8c-10.71,0.13 -22.65,8.46 -31.8,13.76l-0.68,-1.54c-2.21,1.11 -1.62,0.88 -3.93,1.49c-0.64,-2.93 -0.5,-1.96 -0.26,-5.03l3.42,-5.02l-0.57,-1.21c-3.78,-0.75 -6.96,1.05 -10,3.2c-24.09,17.05 -48.55,37 -74.12,51.79c-29.59,20.72 -66.16,39.41 -98.74,55.12c-10.68,5.15 -40.57,15.79 -47.91,20.93l-2.19,-1.5c-17.5,12.03 -78.04,22.55 -100.28,27.49c-7.12,1.58 -22.86,8.33 -30.28,11.18c-18.31,7.21 -36.78,13.99 -55.4,20.34c-74.79,25.18 -166.95,40.35 -246.12,36.83c-177.27,-7.89 -311.39,-73.63 -430.8,-202.97c-1.65,-1.68 -3.22,-3.37 -4.82,-5.09c-6.34,-0.32 -41.97,-1.43 -45.38,-3.71c2.03,-8.01 3.75,-17.92 5.4,-26.14l4.27,-19.42c1.63,-10.36 5.13,-25.4 7.53,-35.69c3.52,-17.02 6.94,-34.07 10.25,-51.13c2.07,-9.03 3.9,-18.66 5.79,-27.78c5.96,-25.56 10.61,-52.65 16.35,-78.51c-5.48,-11.83 -10.73,-23.76 -15.74,-35.8c-58.18,-137.85 -68.52,-291.22 -29.35,-435.63c9.41,-34.69 20.69,-63.87 34.3,-96.95c5.75,-7.49 12.5,-17.86 20.4,-22.59c-1.36,5.41 -1.92,7.62 -2.39,13.29l-0.09,1.21c-10.47,29.7 -20.02,60.63 -25.29,91.74c1.68,3.61 -5.81,59.61 -6.53,71.21c-3.33,53.68 1.76,104.4 11.11,157.2c1.44,8.15 10.62,35.95 8.57,42.78c8.09,29.77 19.02,56.11 32.25,83.78c8.73,-44.44 18.96,-89.42 28.11,-133.96c1.26,-4.36 2.42,-10.19 3.29,-14.67c4.12,-20.99 9.72,-42.33 13.14,-63.4c1.74,-4.17 8.63,-40.46 9.67,-46.43c4.05,-17.98 9.08,-40.12 11.99,-58.14l0.24,-0.65c3.9,-15.43 8.46,-38.05 11.25,-53.67c3.3,-11.54 6.45,-29.37 8.72,-41.33c5.86,1.19 62.37,0.89 66.62,-0.34c11.46,-14.98 20.42,-19.18 32.65,-31.25c9.41,-9.28 12.39,-35.79 14.77,-49.35l9.61,-51.8c7.25,1.57 14.5,3.1 21.77,4.6l1.56,-2.74c0.34,0.17 0.68,0.37 1.04,0.52c5.07,2.15 56.53,12.61 59.51,10.97c5.42,-2.96 21.04,-16.62 22.4,-22.51c0.09,-0.39 0.15,-0.78 0.23,-1.17c3.33,-15.73 8.91,-89.73 16.04,-96.47c11.58,-1.62 68.59,21.9 80.79,27.71c10.03,-4.97 35.89,-25.36 43.7,-24.11c8.06,-4.63 16.04,-9.4 23.94,-14.31z" fill="#000000" id="svg_3"/>
   <path d="m821.95,423.46c6.19,-11.84 90.12,-47.54 106.94,-55.8c3.99,-1.96 15.18,-5.3 19.76,-7.17c158.92,-64.92 340.36,-74.59 505.61,-29.83c11.14,3.02 22.31,7.91 33.09,10.84l0.87,-1.08c-1,-2.15 -1.92,-4 -3.03,-6.09c5.62,4.63 12.02,9.51 16.62,15.12c6.14,3.31 1.83,-1.54 5.76,1.25c-0.74,2.09 -0.55,2.04 -1.75,3.84c-12.04,-2.66 -24.67,-4.31 -36.9,-6.13c-17.96,-2.72 -36.03,-4.67 -54.16,-5.84c-10.2,-1.66 -33.28,-2.19 -44.52,-2.51c-83.18,-2.13 -166.2,8.53 -246.15,31.6c-6.27,1.8 -32.59,9.29 -37.9,12.11c-12.85,4.5 -30.13,10.64 -42.38,16.52c-55.62,20.96 -153.16,77.9 -197.15,118.12l-0.22,1.73c1.54,1.25 2.57,2.11 4.21,3.22c26.13,-11.03 89.15,-30.3 117.24,-33.23l9.14,-2.53c5.38,-1.58 9.14,-2.75 14.75,-3.63l8.92,-2.43c8.55,-1.69 17.07,-3.55 25.55,-5.58c14.15,-1.85 28.66,-4.78 42.75,-6.4c48.07,-5.51 103.43,-4.99 150.51,7.13l0.86,-1.71c8.16,-3.65 51.57,-4.9 60.61,-2.58c34.18,-16.21 57.28,-25.44 93.31,-37.2l6.21,45.68c1.43,0.09 6.1,0.28 7.21,0.58c-1.55,0.93 -2.43,0.96 -2.44,2.44c-0.1,15.6 4.53,38.74 6.65,54.16c5.41,6.4 14.74,13.89 22.76,17.1c1.73,0.69 5.41,0.77 7.65,1.37c5.84,-1.18 11.96,-2.23 17.57,-4.15c15.94,-2.71 42,-7.69 57.48,-11.68c4.38,19.35 7.24,38.91 10.85,58.37c1.98,10.67 4.01,32.65 10.81,40.16l3.04,2.87c11.73,10.5 22.82,20.61 33.51,32.19l65.7,-0.05l10.71,50.51c1.81,8.42 4.79,23.66 7.5,31.25c3,4.79 6.68,11.08 9.81,15.62c-2.62,5.29 -3.54,7.14 -4.86,12.86c-4.26,13.21 -7.7,25.3 -12.52,38.48c-3.14,8.58 -8.23,20.61 -10.58,28.93l-1.14,0.85c-11.77,18.53 -23.13,37.63 -37.01,54.58c-1.48,0.23 -0.94,0.46 -1.75,-0.12c-0.81,5.85 -14.95,22.57 -19.48,27.04l-2.63,3.05c-4.8,5.66 -25.91,31.18 -30.53,35.07l-40.93,-258.73c-6.53,-40.24 -12.71,-88.21 -21.19,-127.3c-39.5,8.1 -70.8,14.89 -109.39,27.63c-4.72,-41.17 -10.99,-86.53 -14.59,-127.41c-137.47,57.73 -250.79,152.96 -319,286.69c-58.86,-128.1 -189.08,-233.78 -317.65,-286.55c-5.69,42.04 -9.31,86.29 -15.23,127.22c-39.65,-12.76 -67.9,-19.2 -109.24,-27.59l-98.21,616.35c166.23,8.38 316.18,44.06 444.09,154.91l-0.5,2.5c-0.9,-0.59 -1.8,-1.16 -2.71,-1.73c-157.1,-96.97 -341.76,-78.74 -513.66,-38.13c-8.07,1.91 -16.17,3.77 -24.25,5.66c5.11,-21.71 9.59,-48.89 13.83,-71.02l25.2,-131.99l71.6,-371.65l14.88,-8.82c-10.07,66.7 -16.75,133.43 -26.25,199.69l2.43,-1.06c20.07,-87.28 38.82,-174.87 56.23,-262.72c-10.47,10.3 -24.92,25.37 -35.72,34.62c-16.72,-0.04 -33.69,-0.26 -50.38,-0.11c-19.74,88.95 -37.31,179.25 -56.04,268.5l-91.65,437.13l415.21,26.51l127.97,7.95c21.44,1.35 45.36,3.44 66.6,4.25c12.62,18.06 25.96,32.27 46.5,41.14c58.22,25.13 125.56,12.82 161.68,-41.19c65.89,-4.2 134.6,-9.69 200.4,-12.41c6.37,-1.33 15.4,-9.26 22,-13.46c1.15,-1.61 56.4,-44.88 63.04,-50.12c1.06,-1.79 5.46,-5.43 7.21,-7.02c5.15,-4.61 10.24,-9.29 15.28,-14.03c5.88,-5.2 22.15,-19.1 25.61,-24.54l-2.22,-1.3c8.29,-0.25 7.59,-5.67 15.22,-9.63l-0.04,-2.3c4.77,-3.72 24.39,-22.16 26.63,-26.77l-1.29,-1.19c5.17,-0.39 8.43,-4.56 12.59,-8.26l1.57,0.09c13.11,-12.11 25.36,-24.79 38.59,-36.96c-1.01,4.05 -1.99,6.79 -1.7,10.93c3.71,-7.05 8.95,-17.12 11.14,-24.59l1.47,1.01c5.72,-2.73 24.96,-23.02 30.85,-28.79c5.78,-6.67 13.55,-17.09 19.48,-22.88c4.22,-6.11 12.01,-15.06 16.9,-21.05l1.29,9.94c13.53,-15.62 28.9,-36.89 41.93,-50.97l1.62,-2.71c8.88,-11.4 22.29,-31.53 29.5,-43.86l2.25,-1.39c1.51,-6.84 24.52,-40.98 25.79,-52.66c1.38,-2.35 2.9,-5.47 4.18,-7.95c6.59,-6.02 10.34,-25.17 14.71,-34.84c0.07,5.31 0.45,11.98 -0.42,17.09l-0.07,-0.48c-1.31,14.59 -2.61,29.2 -6.31,43.41c-1.83,7.03 -3.84,14.05 -3.59,21.38c-6.46,24.07 -17.91,54.48 -22.64,79.06c-1.06,-7.13 -2.69,-14.32 -3.78,-21.69c-1.85,0.9 -27.98,44.38 -29.96,48.5c-4.32,6.56 -41.56,59.89 -42.09,62.55c-2.89,1.24 -12.97,15.59 -15.66,19.16c-9.36,12.5 -19,24.8 -28.91,36.87c-2.98,3.66 -15.95,18.77 -16.9,21.61c-3.13,3.18 -21.27,23.19 -22.03,25.74c-2.92,2.05 -7.91,6.44 -8.38,10.01c-3.69,2.05 -5.55,4.18 -8.59,7.1c-5,5.8 -11.09,11.67 -16.54,17.15c-3.17,3.03 -9.73,8.11 -10.36,11.68c2.06,0.76 2.13,0.82 4.3,1.28c-2.32,-0.08 -5.43,-0.28 -7.31,0.97c-14.08,9.39 -39,36.78 -52.42,44.55c-3.05,2.63 -11.64,8.95 -13,11.3c1.54,0.6 1.41,0.67 3.02,0.89c-2.68,0.69 -4.01,0.76 -6.86,0.8c-10.71,0.13 -22.65,8.46 -31.8,13.76l-0.68,-1.54c-2.21,1.11 -1.62,0.88 -3.93,1.49c-0.64,-2.93 -0.5,-1.96 -0.26,-5.03l3.42,-5.02l-0.57,-1.21c-3.78,-0.75 -6.96,1.05 -10,3.2c-24.09,17.05 -48.55,37 -74.12,51.79c-29.59,20.72 -66.16,39.41 -98.74,55.12c-10.68,5.15 -40.57,15.79 -47.91,20.93l-2.19,-1.5c-17.5,12.03 -78.04,22.55 -100.28,27.49c-7.12,1.58 -22.86,8.33 -30.28,11.18c-18.31,7.21 -36.78,13.99 -55.4,20.34c-74.79,25.18 -166.95,40.35 -246.12,36.83c-177.27,-7.89 -311.39,-73.63 -430.8,-202.97c-1.65,-1.68 -3.22,-3.37 -4.82,-5.09c-6.34,-0.32 -41.97,-1.43 -45.38,-3.71c2.03,-8.01 3.75,-17.92 5.4,-26.14l4.27,-19.42c1.63,-10.36 5.13,-25.4 7.53,-35.69c3.52,-17.02 6.94,-34.07 10.25,-51.13c2.07,-9.03 3.9,-18.66 5.79,-27.78c5.96,-25.56 10.61,-52.65 16.35,-78.51c-5.48,-11.83 -10.73,-23.76 -15.74,-35.8c-58.18,-137.85 -68.52,-291.22 -29.35,-435.63c9.41,-34.69 20.69,-63.87 34.3,-96.95c5.75,-7.49 12.5,-17.86 20.4,-22.59c-1.36,5.41 -1.92,7.62 -2.39,13.29l-0.09,1.21c-10.47,29.7 -20.02,60.63 -25.29,91.74c1.68,3.61 -5.81,59.61 -6.53,71.21c-3.33,53.68 1.76,104.4 11.11,157.2c1.44,8.15 10.62,35.95 8.57,42.78c8.09,29.77 19.02,56.11 32.25,83.78c8.73,-44.44 18.96,-89.42 28.11,-133.96c1.26,-4.36 2.42,-10.19 3.29,-14.67c4.12,-20.99 9.72,-42.33 13.14,-63.4c1.74,-4.17 8.63,-40.46 9.67,-46.43c4.05,-17.98 9.08,-40.12 11.99,-58.14l0.24,-0.65c3.9,-15.43 8.46,-38.05 11.25,-53.67c3.3,-11.54 6.45,-29.37 8.72,-41.33c5.86,1.19 62.37,0.89 66.62,-0.34c11.46,-14.98 20.42,-19.18 32.65,-31.25c9.41,-9.28 12.39,-35.79 14.77,-49.35l9.61,-51.8c7.25,1.57 14.5,3.1 21.77,4.6l1.56,-2.74c0.34,0.17 0.68,0.37 1.04,0.52c5.07,2.15 56.53,12.61 59.51,10.97c5.42,-2.96 21.04,-16.62 22.4,-22.51c0.09,-0.39 0.15,-0.78 0.23,-1.17c3.33,-15.73 8.91,-89.73 16.04,-96.47c11.58,-1.62 68.59,21.9 80.79,27.71c10.03,-4.97 35.89,-25.36 43.7,-24.11c8.06,-4.63 16.04,-9.4 23.94,-14.31z" fill="#fefefe" id="svg_4"/>
   <path d="m1737.73,1014.24c6.59,-6.02 10.34,-25.17 14.71,-34.84c0.07,5.31 0.45,11.98 -0.42,17.09l-0.07,-0.48c-1.31,14.59 -2.61,29.2 -6.31,43.41c-1.83,7.03 -3.84,14.05 -3.59,21.38c-6.46,24.07 -17.91,54.48 -22.64,79.06c-1.06,-7.13 -2.69,-14.32 -3.78,-21.69c-1.85,0.9 -27.98,44.38 -29.96,48.5c-4.32,6.56 -41.56,59.89 -42.09,62.55c-2.89,1.24 -12.97,15.59 -15.66,19.16c-9.36,12.5 -19,24.8 -28.91,36.87c-2.98,3.66 -15.95,18.77 -16.9,21.61c-3.13,3.18 -21.27,23.19 -22.03,25.74c-2.92,2.05 -7.91,6.44 -8.38,10.01c-3.69,2.05 -5.55,4.18 -8.59,7.1c-5,5.8 -11.09,11.67 -16.54,17.15c-3.17,3.03 -9.73,8.11 -10.36,11.68c2.06,0.76 2.13,0.82 4.3,1.28c-2.32,-0.08 -5.43,-0.28 -7.31,0.97c-14.08,9.39 -39,36.78 -52.42,44.55c-3.05,2.63 -11.64,8.95 -13,11.3c1.54,0.6 1.41,0.67 3.02,0.89c-2.68,0.69 -4.01,0.76 -6.86,0.8c-10.71,0.13 -22.65,8.46 -31.8,13.76l-0.68,-1.54c-2.21,1.11 -1.62,0.88 -3.93,1.49c-0.64,-2.93 -0.5,-1.96 -0.26,-5.03l3.42,-5.02l-0.57,-1.21c-3.78,-0.75 -6.96,1.05 -10,3.2c-24.09,17.05 -48.55,37 -74.12,51.79c-29.59,20.72 -66.16,39.41 -98.74,55.12c-10.68,5.15 -40.57,15.79 -47.91,20.93l-2.19,-1.5c-17.5,12.03 -78.04,22.55 -100.28,27.49c-7.12,1.58 -22.86,8.33 -30.28,11.18c-18.31,7.21 -36.78,13.99 -55.4,20.34c-74.79,25.18 -166.95,40.35 -246.12,36.83c-177.27,-7.89 -311.39,-73.63 -430.8,-202.97c-1.65,-1.68 -3.22,-3.37 -4.82,-5.09c17.09,1.1 38.23,1.66 54.84,3.31l2.91,2.74c6.3,0.5 51.98,3.54 56.09,2.96l0.71,-2.04c9.16,0.83 18.33,1.45 27.52,1.86c51.52,3.64 107.47,7.78 158.9,10.12c68.01,75.39 158.94,132.46 262.23,136.24c42.23,1.54 69.85,-2.2 110.94,-9.6c-15.84,-1.5 -31.45,-1.51 -47.67,-3c-47.44,-4.37 -93.5,-18.15 -136.35,-38.8c-2.46,-1.19 -10.98,-5.56 -12.62,-7.24c-15.32,-6.49 -43.32,-26.65 -56.1,-36.95c-4.76,-11.27 -30.75,-27.22 -31.6,-31.81l1.61,-0.63c19.94,3.99 13.94,5.1 29.23,14.19c13.79,8.2 32.07,17.35 46.58,24.41c100.38,49.14 214.55,62.46 323.54,37.76c7.88,-1.71 26.28,-6.22 33.2,-8.35c21.48,-6.63 110.99,-40.85 121.48,-57.11l2.07,-1.22c4.44,-3.8 11.48,-7.24 16.06,-10.56c12.68,-9.18 46.23,-28.76 56.17,-38.36l-0.36,-1.32c6.37,-1.33 15.4,-9.26 22,-13.46c1.15,-1.61 56.4,-44.88 63.04,-50.12c1.06,-1.79 5.46,-5.43 7.21,-7.02c5.15,-4.61 10.24,-9.29 15.28,-14.03c5.88,-5.2 22.15,-19.1 25.61,-24.54l-2.22,-1.3c8.29,-0.25 7.59,-5.67 15.22,-9.63l-0.04,-2.3c4.77,-3.72 24.39,-22.16 26.63,-26.77l-1.29,-1.19c5.17,-0.39 8.43,-4.56 12.59,-8.26l1.57,0.09c13.11,-12.11 25.36,-24.79 38.59,-36.96c-1.01,4.05 -1.99,6.79 -1.7,10.93c3.71,-7.05 8.95,-17.12 11.14,-24.59l1.47,1.01c5.72,-2.73 24.96,-23.02 30.85,-28.79c5.78,-6.67 13.55,-17.09 19.48,-22.88c4.22,-6.11 12.01,-15.06 16.9,-21.05l1.29,9.94c13.53,-15.62 28.9,-36.89 41.93,-50.97l1.62,-2.71c8.88,-11.4 22.29,-31.53 29.5,-43.86l2.25,-1.39c1.51,-6.84 24.52,-40.98 25.79,-52.66c1.38,-2.35 2.9,-5.47 4.18,-7.95z" fill="#b06ce7" id="svg_5"/>
   <path d="m424.01,1465.07c9.16,0.83 18.33,1.45 27.52,1.86l4.21,3.96c79.09,66.32 230.3,140.66 333.28,156.89l-5.28,1.43c-54.69,-2.58 -108.73,-12.93 -160.5,-30.76c-53.22,-20.3 -111.85,-54.3 -155.81,-90.55c-15.45,-12.75 -29.54,-27.16 -44.13,-40.79l0.71,-2.04z" fill="#66279d" id="svg_6"/>
   <path d="m367.21,1464.15c6.3,0.5 51.98,3.54 56.09,2.96c14.59,13.63 28.68,28.04 44.13,40.79c43.96,36.25 102.59,70.25 155.81,90.55c-4.22,0.6 -11.41,-1.31 -15.72,-2.31c-58.49,-13.6 -114.48,-40.22 -164.52,-73.09c-10.08,-6.62 -20.38,-14.6 -30.5,-20.6l-1.52,-0.89c-13.28,-12.21 -28.69,-23.29 -43.77,-37.41z" fill="#ddacfb" id="svg_7"/>
   <path d="m451.53,1466.93c51.52,3.64 107.47,7.78 158.9,10.12c68.01,75.39 158.94,132.46 262.23,136.24c42.23,1.54 69.85,-2.2 110.94,-9.6c-15.84,-1.5 -31.45,-1.51 -47.67,-3c-47.44,-4.37 -93.5,-18.15 -136.35,-38.8c-2.46,-1.19 -10.98,-5.56 -12.62,-7.24c2.78,-0.51 59.61,24.35 71.62,28.09c33.73,10.5 61.38,13.02 96.31,16.16c9.35,0.84 19.14,0.4 28.52,0.92c2.67,0.15 3.93,0.82 5.49,2.62l-0.49,1.43c-8.42,1.79 -18.04,5.55 -23.59,6.64c-28.95,5.69 -70.97,8.5 -100.49,5.97c-31.7,-2.54 -62.91,-9.42 -92.74,-20.44c-54.06,-20.58 -125.21,-71.22 -162.1,-115.36c-20.62,-3.04 -41.12,-3.32 -61.66,-4.47l-81.31,-4.93l7.95,-0.42c-6.59,-0.59 -12.47,-1.71 -18.73,0.03l-4.21,-3.96z" fill="#aa70d8" id="svg_8"/>
   <path d="m1562.47,1235.55l1.47,1.01c5.72,-2.73 24.96,-23.02 30.85,-28.79c-0.69,4.19 -0.71,4.29 -2.38,8.18l-0.78,0.99c-4.53,5.85 -11.25,19.3 -15.29,25.28c-10.69,15.8 -50.22,78.82 -62.19,89.23l-1.49,0.13c0.74,-4.4 5.03,-8.45 6.89,-12.12c5.62,-11.11 29.2,-49.63 31.78,-59.32c3.71,-7.05 8.95,-17.12 11.14,-24.59z" fill="#ddacfb" id="svg_9"/>
   <path d="m1543.11,1349.71c4.54,-13.92 21.3,-27.68 30.55,-39.32c10.7,-12.4 20.7,-24.82 30.44,-37.98c6.34,-8.57 12.7,-12.4 19.19,-22.27c22.21,-33.8 48.76,-65 67.89,-100.84c2.99,-5.61 10.34,-10.75 12.38,-17.05c1.62,-4.24 6.49,-14.07 10.83,-15.45l1.24,1.37c-1.85,0.9 -27.98,44.38 -29.96,48.5c-4.32,6.56 -41.56,59.89 -42.09,62.55c-2.89,1.24 -12.97,15.59 -15.66,19.16c-9.36,12.5 -19,24.8 -28.91,36.87c-2.98,3.66 -15.95,18.77 -16.9,21.61c-3.13,3.18 -21.27,23.19 -22.03,25.74c-2.92,2.05 -7.91,6.44 -8.38,10.01c-3.69,2.05 -5.55,4.18 -8.59,7.1z" fill="#aa70d8" id="svg_10"/>
   <path d="m1177.16,1570.32l0.19,-0.81c9.83,-7.34 19.67,-8.4 30.53,-13.42c13.99,-6.36 27.93,-12.85 41.95,-19.16c5.61,-2.54 10.96,-5.6 16.26,-8.7c18.74,-10.97 37.53,-21.87 56.45,-32.51c1.15,0.01 2.31,0.03 3.46,0.05c-29.59,20.72 -66.16,39.41 -98.74,55.12c-10.68,5.15 -40.57,15.79 -47.91,20.93l-2.19,-1.5z" fill="#aa70d8" id="svg_11"/>
   <path d="m1328.84,1444.7c6.37,-1.33 15.4,-9.26 22,-13.46c-3.78,9.84 -82.17,62.25 -93.87,63.7c4.44,-3.8 11.48,-7.24 16.06,-10.56c12.68,-9.18 46.23,-28.76 56.17,-38.36l-0.36,-1.32z" fill="#aa70d8" id="svg_12"/>
   <path d="m309.46,1458.1c17.09,1.1 38.23,1.66 54.84,3.31l2.91,2.74c15.08,14.12 30.49,25.2 43.77,37.41c-11.42,-3.3 -36.84,-28.35 -46.42,-37.35c-11.5,0.94 -43.59,-3.53 -50.28,-1.02c-1.65,-1.68 -3.22,-3.37 -4.82,-5.09z" fill="#aa70d8" id="svg_13"/>
   <path d="m1459.76,1334.23c8.29,-0.25 7.59,-5.67 15.22,-9.63c-3.89,11.57 -47.17,47.99 -58.89,56.73l-2.21,-0.21c1.06,-1.79 5.46,-5.43 7.21,-7.02c5.15,-4.61 10.24,-9.29 15.28,-14.03c5.88,-5.2 22.15,-19.1 25.61,-24.54l-2.22,-1.3z" fill="#aa70d8" id="svg_14"/>
   <path d="m1707.76,1074.85c-3.09,10.05 -24.33,44.74 -33.37,47.96l1.62,-2.71c8.88,-11.4 22.29,-31.53 29.5,-43.86l2.25,-1.39z" fill="#aa70d8" id="svg_15"/>
   <path d="m1411.46,1450.55c13.14,-9.7 23.25,-12.99 37.94,-19.39c4.87,-2.11 4.47,-4.03 11.38,-5.82c-3.05,2.63 -11.64,8.95 -13,11.3c1.54,0.6 1.41,0.67 3.02,0.89c-2.68,0.69 -4.01,0.76 -6.86,0.8c-10.71,0.13 -22.65,8.46 -31.8,13.76l-0.68,-1.54z" fill="#aa70d8" id="svg_16"/>
   <path d="m1614.27,1184.89c-0.3,6.48 -16.86,26.35 -21.86,31.06c1.67,-3.89 1.69,-3.99 2.38,-8.18c5.78,-6.67 13.55,-17.09 19.48,-22.88z" fill="#aa70d8" id="svg_17"/>
   <path d="m789.02,1627.78c2.73,0.17 3.94,-0.17 6.02,1.15c-5.07,1.27 -6.06,1.01 -11.3,0.28l5.28,-1.43z" fill="#854abb" id="svg_18"/>
   <path d="m1415.01,1432.15c1.64,6.16 -3.91,7.71 -8.47,8.43l-0.77,-0.83c1.25,-2.52 6.65,-5.78 9.24,-7.6z" fill="#13002e" id="svg_19"/>
   <path d="m1504.73,678.35c11.78,11.61 23.65,23.14 35.6,34.58l50.27,-0.09c10.6,43.83 20.12,95.28 29.61,139.9c-11.77,18.53 -23.13,37.63 -37.01,54.58c-1.48,0.23 -0.94,0.46 -1.75,-0.12c-0.81,5.85 -14.95,22.57 -19.48,27.04l-2.63,3.05c-13.51,-60.86 -26.56,-121.82 -39.15,-182.88c-5.22,-25.24 -9.71,-51.02 -15.46,-76.06z" fill="#000000" id="svg_20"/>
   <path d="m1537.26,743.02l14.42,8.69l29.77,155.49c-0.81,5.85 -14.95,22.57 -19.48,27.04c-7.55,-63.82 -15.79,-127.57 -24.71,-191.22z" fill="#fefefe" id="svg_21"/>
   <path d="m992.84,486.44c72.09,-7.12 145.43,0.95 212.05,30.81c-10.14,7.98 -21.5,15.43 -32.19,22.73c-77.58,-21.07 -145.42,-27.85 -224.94,-10c-20.31,4.56 -42.62,10.79 -61.77,18.96c-2.62,-1.93 -21.95,-15.96 -23.05,-17.27c-4.48,-2.55 -8.12,-5.3 -12.29,-8.31c26.13,-11.03 89.15,-30.3 117.24,-33.23l9.14,-2.53c5.38,-1.58 9.14,-2.75 14.75,-3.63l1.06,2.47z" fill="#b06ce7" id="svg_22"/>
   <path d="m992.84,486.44c72.09,-7.12 145.43,0.95 212.05,30.81c-10.14,7.98 -21.5,15.43 -32.19,22.73c-77.58,-21.07 -145.42,-27.85 -224.94,-10c-20.31,4.56 -42.62,10.79 -61.77,18.96c-2.62,-1.93 -21.95,-15.96 -23.05,-17.27c5.23,0.17 18.85,10.34 23.11,13.83c11.4,-3.29 23.73,-7.85 34.92,-11.35c81.35,-25.46 164.57,-21.34 246.07,0.71c9.27,2.51 23.77,-9.84 30.81,-15.87l0.09,-1.46c-10.13,-7.63 -23.31,-7.76 -34.09,-12.43c-10.65,-4.62 -19.61,-5.49 -30.82,-7.93c-35.64,-7.74 -71.31,-11.5 -107.8,-10.02c-15.81,0.64 -32.46,3.2 -48.27,2.82c-3.98,-0.09 -4.82,-0.2 -9.07,0.16l9.14,-2.53c5.38,-1.58 9.14,-2.75 14.75,-3.63l1.06,2.47z" fill="#aa70d8" id="svg_23"/>
   <path d="m977.03,487.6c5.38,-1.58 9.14,-2.75 14.75,-3.63l1.06,2.47c-6.94,1.14 -8.6,1.43 -15.81,1.16z" fill="#ddacfb" id="svg_24"/>
   <path d="m821.95,423.46c6.19,-11.84 90.12,-47.54 106.94,-55.8c3.99,-1.96 15.18,-5.3 19.76,-7.17c158.92,-64.92 340.36,-74.59 505.61,-29.83c11.14,3.02 22.31,7.91 33.09,10.84l0.87,-1.08c-1,-2.15 -1.92,-4 -3.03,-6.09c5.62,4.63 12.02,9.51 16.62,15.12c-208.56,-72.5 -424.12,-52.08 -621.69,43.63c-19.62,9.69 -39.01,19.82 -58.17,30.38z" fill="#aa70d8" id="svg_25"/>
   <path d="m690.09,1481.31c27.18,3.33 30.59,8.28 54.06,22.17c10.46,6.14 21.15,11.89 32.05,17.23c21.75,10.72 44.28,19.78 67.4,27.09c107.71,33.74 223.7,29.71 328.8,-11.41c32.71,-12.8 52.24,-24.61 82.5,-40.23c-10.49,16.26 -100,50.48 -121.48,57.11c-6.92,2.13 -25.32,6.64 -33.2,8.35c-108.99,24.7 -223.16,11.38 -323.54,-37.76c-14.51,-7.06 -32.79,-16.21 -46.58,-24.41c-15.29,-9.09 -9.29,-10.2 -29.23,-14.19l-1.61,0.63c0.85,4.59 26.84,20.54 31.6,31.81c-13.55,-9.91 -28.98,-24.5 -40.77,-36.39z" fill="#aa70d8" id="svg_26"/>
   <path d="m574.3,542.83c0.34,0.17 0.68,0.37 1.04,0.52c5.07,2.15 56.53,12.61 59.51,10.97c5.42,-2.96 21.04,-16.62 22.4,-22.51c0.09,-0.39 0.15,-0.78 0.23,-1.17c3.33,-15.73 8.91,-89.73 16.04,-96.47c11.58,-1.62 68.59,21.9 80.79,27.71c10.03,-4.97 35.89,-25.36 43.7,-24.11c-13.51,9.39 -28.81,18.83 -42.75,27.83c-27.94,-11.71 -52.88,-21.39 -81.69,-30.62c-2.1,20.61 -5.33,42.35 -8.11,62.95c-1.42,10.61 -3.25,28.56 -5.34,38.58c-8.08,7.29 -16.46,14.69 -24.41,22.08c-19.7,-4.85 -42.92,-9.33 -62.97,-13.02l1.56,-2.74z" fill="#aa70d8" id="svg_27"/>
   <path d="m295.51,730.99c1.68,3.61 -5.81,59.61 -6.53,71.21c-3.33,53.68 1.76,104.4 11.11,157.2c1.44,8.15 10.62,35.95 8.57,42.78c-26.09,-88.39 -28.72,-180.73 -13.15,-271.19z" fill="#622b90" id="svg_28"/>
   <path d="m1219.51,476.69l0.86,-1.71c8.16,-3.65 51.57,-4.9 60.61,-2.58c-3.28,1.75 -10.94,6.06 -14.03,7.35c-5.94,-0.73 -8.11,3.14 -13.15,2.93c-8.33,-0.36 -15.11,-5.77 -24,-3.35l-10.29,-2.64z" fill="#8746c3" id="svg_29"/>
   <path d="m1380.5,480.88c1.43,0.09 6.1,0.28 7.21,0.58c-1.55,0.93 -2.43,0.96 -2.44,2.44c-0.1,15.6 4.53,38.74 6.65,54.16c5.41,6.4 14.74,13.89 22.76,17.1c1.73,0.69 5.41,0.77 7.65,1.37l-10.18,2.54l-23.03,-17.51c-3.46,-17.14 -6.08,-42.63 -8.62,-60.68z" fill="#aa70d8" id="svg_30"/>
   <path d="m364.3,1461.41c18.99,1.31 40.76,3.05 59.71,3.66l-0.71,2.04c-4.11,0.58 -49.79,-2.46 -56.09,-2.96l-2.91,-2.74z" fill="#ddacfb" id="svg_31"/>
   <path d="m1229.8,479.33c8.89,-2.42 15.67,2.99 24,3.35c5.04,0.21 7.21,-3.66 13.15,-2.93c-3.15,2.15 -8.7,5.15 -12.16,7.16c-8.07,-2.78 -16.77,-5.17 -24.99,-7.58z" fill="#854abb" id="svg_32"/>
   <path d="m1639.5,756c3,4.79 6.68,11.08 9.81,15.62c-2.62,5.29 -3.54,7.14 -4.86,12.86c-0.77,-8.53 -3.29,-19.86 -4.95,-28.48z" fill="#edd5f7" id="svg_33"/>
   <path d="m485.61,942.09l2.43,-1.06c-0.7,3.41 -1.35,8.45 -3.19,11.19c-0.18,-4.37 0.09,-5.74 0.76,-10.13z" fill="#515151" id="svg_34"/>
   <path d="m1086.19,383.77c5.31,-2.82 31.63,-10.31 37.9,-12.11c79.95,-23.07 162.97,-33.73 246.15,-31.6c11.24,0.32 34.32,0.85 44.52,2.51c18.13,1.17 36.2,3.12 54.16,5.84c12.23,1.82 24.86,3.47 36.9,6.13c48.02,8.79 94.9,22.92 139.77,42.13c20.98,10.31 33.59,17.23 53.19,30.21c57.3,42.57 89.13,86.79 100.53,159.24c4.7,48.96 0.34,81.56 -13.53,127.84c28.53,59.14 43.1,127.07 48.17,192.26c1.17,15.11 2.14,42.36 0.38,57.09c-9.12,-55.37 -21.05,-108.9 -41.31,-161.3c-5.35,-13.83 -13.13,-34.95 -20.06,-47.91c-12.8,28.67 -26.05,54.47 -43.39,80.8c-6.09,8.46 -28.15,41.61 -33.84,46.31c-3.72,4.8 -7.04,9.22 -11.23,13.64c-2.17,2.66 -5.6,6.46 -7.08,9.35l-0.71,1.98c-2.65,0.76 -4.85,3.07 -6.7,5.09c-4.86,5.51 -30.56,30.83 -31.48,33.1c-2.97,0.85 -38.37,31.35 -42.73,35.72c-16.51,13.29 -40.73,32.65 -58.74,43.96l-33.68,22.84l-29.66,19.07c3.34,22.24 8.83,52.79 10.83,74.69c-129.11,13.78 -291.13,78.83 -378.65,177.71c-4.73,5.21 -14.03,16.22 -19.25,19.94c4.35,-11.41 34.54,-56.6 43.21,-65.45c4.14,-7.98 21.71,-27.01 28.33,-34.27c70.01,-76.85 156.86,-121.92 248.82,-166.6l-42.36,-393.12c0.42,-2.1 1.61,-9.1 3.9,-9.54c8.8,-1.68 34.31,-11.72 42.66,-9.43c2.59,7.52 7.5,48.6 9.09,59.38l31.13,212.76c4.59,30.51 7.6,60.76 13.67,91.12c0.69,3.46 1.03,5.13 3.93,6.82c4.85,-1.68 26.3,-20.76 27.49,-26.68l1.06,1.35c7.88,-3.39 23.13,-24.55 28.8,-27.59l2.43,-4.69c4.62,-3.89 25.73,-29.41 30.53,-35.07l2.63,-3.05c4.53,-4.47 18.67,-21.19 19.48,-27.04c0.81,0.58 0.27,0.35 1.75,0.12c13.88,-16.95 25.24,-36.05 37.01,-54.58l1.14,-0.85c2.35,-8.32 7.44,-20.35 10.58,-28.93c4.82,-13.18 8.26,-25.27 12.52,-38.48c1.32,-5.72 2.24,-7.57 4.86,-12.86c-3.13,-4.54 -6.81,-10.83 -9.81,-15.62c-2.71,-7.59 -5.69,-22.83 -7.5,-31.25l-10.71,-50.51l-65.7,0.05c-10.69,-11.58 -21.78,-21.69 -33.51,-32.19l-3.04,-2.87c-6.8,-7.51 -8.83,-29.49 -10.81,-40.16c-3.61,-19.46 -6.47,-39.02 -10.85,-58.37c-15.48,3.99 -41.54,8.97 -57.48,11.68c-5.61,1.92 -11.73,2.97 -17.57,4.15c-2.24,-0.6 -5.92,-0.68 -7.65,-1.37c-8.02,-3.21 -17.35,-10.7 -22.76,-17.1c-2.12,-15.42 -6.75,-38.56 -6.65,-54.16c0.01,-1.48 0.89,-1.51 2.44,-2.44c-1.11,-0.3 -5.78,-0.49 -7.21,-0.58l-6.21,-45.68c-36.03,11.76 -59.13,20.99 -93.31,37.2c-9.04,-2.32 -52.45,-1.07 -60.61,2.58l-0.86,1.71c-47.08,-12.12 -102.44,-12.64 -150.51,-7.13c-14.09,1.62 -28.6,4.55 -42.75,6.4c-8.48,2.03 -17,3.89 -25.55,5.58l-8.92,2.43c-5.61,0.88 -9.37,2.05 -14.75,3.63l-9.14,2.53c-28.09,2.93 -91.11,22.2 -117.24,33.23c-1.64,-1.11 -2.67,-1.97 -4.21,-3.22l0.22,-1.73c43.99,-40.22 141.53,-97.16 197.15,-118.12c12.25,-5.88 29.53,-12.02 42.38,-16.52z" fill="#b06ce7" id="svg_35"/>
   <path d="m1086.19,383.77c5.31,-2.82 31.63,-10.31 37.9,-12.11c79.95,-23.07 162.97,-33.73 246.15,-31.6c11.24,0.32 34.32,0.85 44.52,2.51c18.13,1.17 36.2,3.12 54.16,5.84c12.23,1.82 24.86,3.47 36.9,6.13c48.02,8.79 94.9,22.92 139.77,42.13c20.98,10.31 33.59,17.23 53.19,30.21c57.3,42.57 89.13,86.79 100.53,159.24c4.7,48.96 0.34,81.56 -13.53,127.84c28.53,59.14 43.1,127.07 48.17,192.26c1.17,15.11 2.14,42.36 0.38,57.09c-9.12,-55.37 -21.05,-108.9 -41.31,-161.3c-5.35,-13.83 -13.13,-34.95 -20.06,-47.91c-12.8,28.67 -26.05,54.47 -43.39,80.8c-6.09,8.46 -28.15,41.61 -33.84,46.31c-3.72,4.8 -7.04,9.22 -11.23,13.64c-2.17,2.66 -5.6,6.46 -7.08,9.35l-0.71,1.98c-2.65,0.76 -4.85,3.07 -6.7,5.09c-4.86,5.51 -30.56,30.83 -31.48,33.1c-2.97,0.85 -38.37,31.35 -42.73,35.72c-16.51,13.29 -40.73,32.65 -58.74,43.96l-33.68,22.84l-29.66,19.07l-2.64,1.56c-12.94,7.12 -23.65,13.09 -37.53,18.32c67.41,-46.8 122.45,-90.65 176.93,-153.84c68.5,-79.33 140.18,-191.54 133.17,-300.85c-12.15,-189.71 -238.06,-247.48 -394.2,-241.97c-17.37,0.63 -34.71,1.95 -51.97,3.95c-12.96,1.57 -27.2,4.08 -40.01,5.12l2.8,2.11c82.77,-5.1 206.51,23.26 279.23,63.91c13.62,7.62 28.4,19.65 40.14,29.93c47.96,42.01 53.83,54.59 69.45,115.27c-60.37,-53.8 -114.2,-88.53 -192.55,-112.68c-23.39,-7.21 -44.09,-12.84 -68.83,-15.33c-1.11,-0.3 -5.78,-0.49 -7.21,-0.58l-6.21,-45.68c-36.03,11.76 -59.13,20.99 -93.31,37.2c-9.04,-2.32 -52.45,-1.07 -60.61,2.58l-0.86,1.71c-47.08,-12.12 -102.44,-12.64 -150.51,-7.13c-14.09,1.62 -28.6,4.55 -42.75,6.4c-8.48,2.03 -17,3.89 -25.55,5.58l-8.92,2.43c-5.61,0.88 -9.37,2.05 -14.75,3.63l-9.14,2.53c-28.09,2.93 -91.11,22.2 -117.24,33.23c-1.64,-1.11 -2.67,-1.97 -4.21,-3.22l0.22,-1.73c43.99,-40.22 141.53,-97.16 197.15,-118.12c12.25,-5.88 29.53,-12.02 42.38,-16.52z" fill="#66279d" id="svg_36"/>
   <path d="m1260.27,400.36c-2.34,0.38 -2.97,0.3 -5.36,0.32l-0.67,-0.94l3.23,-1.49l2.8,2.11z" fill="#8746c3" id="svg_37"/>
   <path d="m1618.93,491.81c20.06,12.76 38.85,30.76 53.93,48.89c62.15,74.75 39.29,181.98 -10.97,256.34c-8.64,12.79 -17.91,25.94 -26.5,39.04c-3.73,4.32 -10.08,12.65 -14.04,15.81c2.35,-8.32 7.44,-20.35 10.58,-28.93c4.82,-13.18 8.26,-25.27 12.52,-38.48c1.32,-5.72 2.24,-7.57 4.86,-12.86c2.59,-6.51 3.87,-10.84 5.78,-17.6c23.09,-69.79 26.01,-153.35 -7.89,-220.03c-8.61,-16.95 -16.58,-27.52 -28.27,-42.18z" fill="#ddacfb" id="svg_38"/>
   <path d="m1471.08,1067.52l2.64,-1.56c3.34,22.24 8.83,52.79 10.83,74.69c-129.11,13.78 -291.13,78.83 -378.65,177.71c-4.73,5.21 -14.03,16.22 -19.25,19.94c4.35,-11.41 34.54,-56.6 43.21,-65.45c-0.21,8.92 -12.56,19.13 -15.8,26.21c-3.92,8.56 -8.07,10.34 -11.7,17.45c3.92,-1.57 28.48,-29.84 37.29,-35.76c12.43,-8.36 28.1,-22.94 41.1,-31.7c59.48,-39.84 124.92,-69.96 193.86,-89.24c19.08,-5 38.28,-9.55 57.58,-13.63c9.31,-1.96 41.3,-6.4 47.39,-9.89c1.51,-8.56 -6.77,-56.95 -8.5,-68.77z" fill="#aa70d8" id="svg_39"/>
   <path d="m1522.08,642.1c7.89,0.63 29.2,21.83 35.2,28.47c10.48,0.28 58.94,0.18 64.51,3.18c7.95,11.8 14.29,79.43 26.09,90.21l1.86,0.13c2.79,-4.95 1.37,-7.52 4.18,-10.46l1.17,0.39c-1.91,6.76 -3.19,11.09 -5.78,17.6c-3.13,-4.54 -6.81,-10.83 -9.81,-15.62c-2.71,-7.59 -5.69,-22.83 -7.5,-31.25l-10.71,-50.51l-65.7,0.05c-10.69,-11.58 -21.78,-21.69 -33.51,-32.19z" fill="#aa70d8" id="svg_40"/>
   <path d="m1635.39,836.08c-0.39,5.03 -11.4,17.49 -15,23.03c-26.72,41.13 -54.73,81.33 -90.18,115.55c-1.22,1.18 -2.31,1.74 -3.83,2.39l2.43,-4.69c4.62,-3.89 25.73,-29.41 30.53,-35.07l2.63,-3.05c4.53,-4.47 18.67,-21.19 19.48,-27.04c0.81,0.58 0.27,0.35 1.75,0.12c13.88,-16.95 25.24,-36.05 37.01,-54.58l1.14,-0.85c3.96,-3.16 10.31,-11.49 14.04,-15.81z" fill="#aa70d8" id="svg_41"/>
   <path d="m1439.9,552.38c5.01,-3.77 53.52,-15.94 58.97,-14.59c3.66,9.79 7,28.86 7.91,39.27c0.8,9.03 13.43,55.98 12.26,62.17c-6.8,-7.51 -8.83,-29.49 -10.81,-40.16c-3.61,-19.46 -6.47,-39.02 -10.85,-58.37c-15.48,3.99 -41.54,8.97 -57.48,11.68z" fill="#aa70d8" id="svg_42"/>
   <path d="m1670.01,911.27c1.85,-2.02 4.05,-4.33 6.7,-5.09l0.71,-1.98c2.82,4.2 4.96,7.24 7.25,11.79c20.78,34.83 35.44,67.91 48.88,106.2c-1.27,11.68 -24.28,45.82 -25.79,52.66l-2.25,1.39c-7.21,12.33 -20.62,32.46 -29.5,43.86l-1.62,2.71c-13.03,14.08 -28.4,35.35 -41.93,50.97l-1.29,-9.94c-4.89,5.99 -12.68,14.94 -16.9,21.05c-5.93,5.79 -13.7,16.21 -19.48,22.88c-5.89,5.77 -25.13,26.06 -30.85,28.79l-1.47,-1.01c-2.19,7.47 -7.43,17.54 -11.14,24.59c-0.29,-4.14 0.69,-6.88 1.7,-10.93c-13.23,12.17 -25.48,24.85 -38.59,36.96l-1.57,-0.09c-4.16,3.7 -7.42,7.87 -12.59,8.26c-134.43,-15.48 -259.62,-8.22 -377.15,64.74l-0.69,-2.85c124.63,-110.4 281.3,-144.3 443.07,-153.6c-4.24,-22.61 -7.76,-47.6 -11.44,-70.46c-5.97,-35.99 -11.64,-72.03 -17.01,-108.12c18.01,-11.31 42.23,-30.67 58.74,-43.96c4.36,-4.37 39.76,-34.87 42.73,-35.72c0.92,-2.27 26.62,-27.59 31.48,-33.1z" fill="#fefefe" id="svg_43"/>
   <path d="m1670.01,911.27c1.85,-2.02 4.05,-4.33 6.7,-5.09l0.71,-1.98c2.82,4.2 4.96,7.24 7.25,11.79c20.78,34.83 35.44,67.91 48.88,106.2c-1.27,11.68 -24.28,45.82 -25.79,52.66l-2.25,1.39c-7.21,12.33 -20.62,32.46 -29.5,43.86c-12.57,-58.22 -24.45,-117.79 -37.48,-175.73c0.92,-2.27 26.62,-27.59 31.48,-33.1z" fill="#fefefe" id="svg_44"/>
   <path d="m1670.01,911.27c1.85,-2.02 4.05,-4.33 6.7,-5.09l0.71,-1.98c2.82,4.2 4.96,7.24 7.25,11.79c20.78,34.83 35.44,67.91 48.88,106.2c-1.27,11.68 -24.28,45.82 -25.79,52.66l-2.25,1.39c-3.13,-11.71 -5.74,-27.56 -8.41,-39.74c-7.06,-32.24 -13.01,-65.3 -20.63,-97.37c-1.21,-7.06 -4.33,-21.27 -6.46,-27.86z" fill="#66279d" id="svg_45"/>
   <path d="m1670.01,911.27c1.85,-2.02 4.05,-4.33 6.7,-5.09l0.71,-1.98c2.82,4.2 4.96,7.24 7.25,11.79l-6.49,-4.48c-0.09,7.81 3.29,19.82 0.7,26.9c-1.79,0.94 -0.95,0.85 -2.41,0.72c-1.21,-7.06 -4.33,-21.27 -6.46,-27.86z" fill="#8746c3" id="svg_46"/>
   <path d="m1595.8,980.09c4.36,-4.37 39.76,-34.87 42.73,-35.72c13.03,57.94 24.91,117.51 37.48,175.73l-1.62,2.71c-13.03,14.08 -28.4,35.35 -41.93,50.97l-1.29,-9.94c-3.87,-23.84 -9.6,-50.06 -14.26,-73.95l-21.11,-109.8z" fill="#000000" id="svg_47"/>
   <path d="m1562.47,1235.55c-2.19,7.47 -7.43,17.54 -11.14,24.59c-0.29,-4.14 0.69,-6.88 1.7,-10.93c-13.23,12.17 -25.48,24.85 -38.59,36.96l-1.57,-0.09c3.03,-4.89 44.11,-45.78 49.6,-50.53z" fill="#aa70d8" id="svg_48"/>
   <path d="m1361.09,649.54c27.78,-9.19 47.67,-15.43 76.42,-21.6l59.01,375.35c-1.19,5.92 -22.64,25 -27.49,26.68c-2.9,-1.69 -3.24,-3.36 -3.93,-6.82c-6.07,-30.36 -9.08,-60.61 -13.67,-91.12l-31.13,-212.76c-1.59,-10.78 -6.5,-51.86 -9.09,-59.38c-8.35,-2.29 -33.86,7.75 -42.66,9.43c-2.29,0.44 -3.48,7.44 -3.9,9.54l-1.23,-10.94l-2.33,-18.38z" fill="#fefefe" id="svg_49"/>
   <path d="m1363.42,667.92c16.66,-4.78 33.95,-9.96 50.67,-14.32l37.37,256.33c5.37,36.84 10.93,83.83 17.57,120.04c-2.9,-1.69 -3.24,-3.36 -3.93,-6.82c-6.07,-30.36 -9.08,-60.61 -13.67,-91.12l-31.13,-212.76c-1.59,-10.78 -6.5,-51.86 -9.09,-59.38c-8.35,-2.29 -33.86,7.75 -42.66,9.43c-2.29,0.44 -3.48,7.44 -3.9,9.54l-1.23,-10.94z" fill="#aa70d8" id="svg_50"/>
   <path d="m1473.72,1065.96l29.66,-19.07c7.36,37.28 12.93,83.01 19.25,121.54c-149.77,11.86 -299.24,52.96 -414.87,152.88l-1.86,-2.95c87.52,-98.88 249.54,-163.93 378.65,-177.71c-2,-21.9 -7.49,-52.45 -10.83,-74.69z" fill="#fefefe" id="svg_51"/>
   <path d="m1169.66,1365.76c74.32,-36.94 157.11,-50.72 239.47,-48.88c16.35,0.36 50.24,1.97 65.81,5.42l0.04,2.3c-7.63,3.96 -6.93,9.38 -15.22,9.63c-79.38,-4.75 -154.11,-4.88 -231.4,15.35c-16.44,4.3 -41.71,10.75 -57.12,17.75l-1.58,-1.57z" fill="#fefefe" id="svg_52"/>
   <path d="m1160.32,1401.72c95.09,-39.75 172.76,-47.18 276.05,-41.65c-5.04,4.74 -10.13,9.42 -15.28,14.03c-73.14,-2.23 -143.64,0.55 -215.28,17.34c-11.35,2.66 -32.69,7.71 -43.42,11.94l-2.07,-1.66z" fill="#fefefe" id="svg_53"/>
   <path d="m1086.65,1338.3c5.22,-3.72 14.52,-14.73 19.25,-19.94l1.86,2.95c-4.1,3.9 -18.42,18.35 -22.19,19.4l1.08,-2.41z" fill="#edd5f7" id="svg_54"/>
   <path d="m927.47,1357.58c2.43,2.03 7.45,5.64 8.49,8.27c-4.08,-1.97 -5.31,-3.01 -8.99,-5.77l0.5,-2.5z" fill="#cccdcc" id="svg_55"/>
   <path d="m1147.48,1408.09c3.72,-2.58 8.63,-4.5 12.84,-6.37l2.07,1.66l-14.91,4.71z" fill="#9a9b9a" id="svg_56"/>
   <path d="m1156.77,1372.34c4.31,-2.37 8.5,-4.42 12.89,-6.58l1.58,1.57c-4.64,1.87 -9.69,3.43 -14.47,5.01z" fill="#cccdcc" id="svg_57"/>
   <path d="m1122.44,1356.23l0.69,2.85l-4.06,3.04l-2.16,-1.1l5.53,-4.79z" fill="#cccdcc" id="svg_58"/>
   <path d="m1116.91,1361.02l2.16,1.1c-2.62,1.93 -2.73,2.14 -5.87,3.4l-0.16,-1.01l3.87,-3.49z" fill="#9a9b9a" id="svg_59"/>
   <path d="m1044.67,806.78c51.89,-118.98 153.88,-212.32 268.9,-269.39l39.36,378.25c4.49,43.49 11.22,91.42 14.42,134.53c-148.51,75.96 -237.6,136.85 -318.01,284.85c-1.41,3.06 -2.42,5.15 -4.08,8.07l-4.26,7.55l0,-355.39l0.02,-115.78c0,-20.66 -0.25,-41.7 0.38,-62.34c0.14,-4.57 1.04,-6.5 3.27,-10.35z" fill="#ddacfb" id="svg_60"/>
   <path d="m1045.26,1343.09l-1.48,-1.64c-1.25,-8.12 -0.4,-25.96 -0.32,-34.85l0.38,-66.35l-0.33,-181.41c0.22,-80.41 -0.6,-160.98 0.48,-241.3c0.13,-10.1 52.93,-87.1 62.48,-91.75c1.65,9.2 1.78,36.4 2.09,46.92l2.85,89.47c3.71,109.51 6.57,223.59 12.98,332.74l-0.37,1.71l1.11,1.79c-26.17,35.24 -41.21,60.68 -60.96,99.73c-3.46,7.27 -15.29,30.44 -14.83,36.87c-1.41,3.06 -2.42,5.15 -4.08,8.07z" fill="#b06ce7" id="svg_61"/>
   <path d="m1064.17,1298.15l-0.4,-3.62c11.53,-28.67 40.29,-73.38 60.25,-97.9l1.11,1.79c-26.17,35.24 -41.21,60.68 -60.96,99.73z" fill="#aa70d8" id="svg_62"/>
   <path d="m1044.67,806.78c51.89,-118.98 153.88,-212.32 268.9,-269.39l39.36,378.25c4.49,43.49 11.22,91.42 14.42,134.53c-148.51,75.96 -237.6,136.85 -318.01,284.85c-0.46,-6.43 11.37,-29.6 14.83,-36.87c19.75,-39.05 34.79,-64.49 60.96,-99.73l-1.11,-1.79l0.37,-1.71c2.28,-1.57 18.94,-25.09 22.64,-28.85c3.15,-3.19 6.94,-5.4 10.02,-8.72c38.55,-41.57 84.33,-72.41 131.61,-102.97c10.6,-6.86 33.43,-16.74 41.79,-24.67c1.31,-4.29 -7.48,-87.37 -8.49,-97.38l-22.56,-239.75l-5.99,-65.16c-0.67,-6.72 -3.07,-39.36 -4.09,-42.32c-16.71,-1.56 -112.88,67.8 -130.08,84.5c-7.71,7.47 -51.08,47.62 -52.77,56.19c-9.55,4.65 -62.35,81.65 -62.48,91.75c-1.08,80.32 -0.26,160.89 -0.48,241.3l0.33,181.41l-0.38,66.35c-0.08,8.89 -0.93,26.73 0.32,34.85l1.48,1.64l-4.26,7.55l0,-355.39l0.02,-115.78c0,-20.66 -0.25,-41.7 0.38,-62.34c0.14,-4.57 1.04,-6.5 3.27,-10.35z" fill="#fefefe" id="svg_63"/>
   <path d="m1044.67,806.78c1.37,-1.03 32.25,-49.4 38.65,-57.94c54.78,-73.15 126.72,-128.85 208.04,-170.01l28.18,301.3c4.8,49.77 10.78,101.98 14.7,151.58c-62.34,33.95 -119.14,72.89 -170.25,122.79c-14.89,14.53 -25.52,29.1 -38.86,43.92l-1.11,-1.79l0.37,-1.71c2.28,-1.57 18.94,-25.09 22.64,-28.85c3.15,-3.19 6.94,-5.4 10.02,-8.72c38.55,-41.57 84.33,-72.41 131.61,-102.97c10.6,-6.86 33.43,-16.74 41.79,-24.67c1.31,-4.29 -7.48,-87.37 -8.49,-97.38l-22.56,-239.75l-5.99,-65.16c-0.67,-6.72 -3.07,-39.36 -4.09,-42.32c-16.71,-1.56 -112.88,67.8 -130.08,84.5c-7.71,7.47 -51.08,47.62 -52.77,56.19c-9.55,4.65 -62.35,81.65 -62.48,91.75c-1.08,80.32 -0.26,160.89 -0.48,241.3l0.33,181.41l-0.38,66.35c-0.08,8.89 -0.93,26.73 0.32,34.85l1.48,1.64l-4.26,7.55l0,-355.39l0.02,-115.78c0,-20.66 -0.25,-41.7 0.38,-62.34c0.14,-4.57 1.04,-6.5 3.27,-10.35z" fill="#c99ae9" id="svg_64"/>
   <path d="m735.29,537.07c116.64,60.32 203.29,140.39 262.97,257.57c2.64,5.26 4.29,8.69 6.41,14.23c2.14,3.75 2.38,6.19 2.4,10.58c0.19,32.71 0.04,65.55 0.02,98.26l-0.04,187.51l0.03,160.72c0,26.51 0.84,58.02 -0.15,84.02c-1.06,-2.07 -7.03,-13.38 -7.33,-14.83l-5.04,-9.64c-72.12,-133.98 -179.67,-209.59 -313.88,-275.13l26.82,-251.77c9.08,-86.64 17.45,-175.15 27.79,-261.52z" fill="#8746c3" id="svg_65"/>
   <path d="m915.3,696.25c2.82,3.7 12.42,10.39 16.58,12.31c16.58,16.9 54.11,65.85 64.38,87l2,-0.92c2.64,5.26 4.29,8.69 6.41,14.23c2.14,3.75 2.38,6.19 2.4,10.58c0.19,32.71 0.04,65.55 0.02,98.26l-0.04,187.51l0.03,160.72c0,26.51 0.84,58.02 -0.15,84.02c-1.06,-2.07 -7.03,-13.38 -7.33,-14.83l-5.04,-9.64l1.76,-1.76c-29.39,-63.3 -56.74,-112.06 -106.16,-162.22l0.62,-2.69c5.23,-63.81 7.94,-136.07 10.94,-200.1c3.99,-87.52 8.52,-175.01 13.58,-262.47z" fill="#66279d" id="svg_66"/>
   <path d="m998.26,794.64c2.64,5.26 4.29,8.69 6.41,14.23c-5.32,-5.22 -5.58,-6.71 -8.41,-13.31l2,-0.92z" fill="#c99ae9" id="svg_67"/>
   <path d="m996.32,1323.73c1.79,4.18 3.46,6.91 3.28,11.4l-5.04,-9.64l1.76,-1.76z" fill="#edd5f7" id="svg_68"/>
   <path d="m735.29,537.07c116.64,60.32 203.29,140.39 262.97,257.57l-2,0.92c-10.27,-21.15 -47.8,-70.1 -64.38,-87c-4.16,-1.92 -13.76,-8.61 -16.58,-12.31c-2.2,-7.78 -22.11,-16.52 -26,-29.06l-4.5,-3.68c-11.49,-11.15 -38.55,-29.88 -51.74,-38.99c-10.71,-8.38 -50.74,-32.6 -63.1,-38.3c-4.73,-0.56 -5.57,-1.45 -9.31,0.13c-4.26,7.54 -8.2,76.91 -10.63,92.04l-0.16,-0.82c-2.12,16.53 -3.52,33.14 -4.01,49.8c-0.11,3.86 -0.07,9.29 -0.62,13c-5.51,37.14 -8.33,75.48 -10.3,112.99l-0.92,0.6c-0.01,-1.75 -0.3,-3.47 -0.53,-5.21c0.17,8.89 -1.62,14.17 -2.33,22.79c-1.8,23.13 -3.84,46.23 -6.11,69.31c-0.43,4.21 -1.79,9.08 -2.2,12.62c-0.72,6.37 1.1,16.04 0.3,22.29c-1.04,8.16 -8.92,46.55 -5.95,52.28l0.6,-1.78c2.62,9.5 13.72,8.42 17.28,17.27c9.1,5.64 35.39,23.55 43.97,27.13c14.81,10.86 29.95,20.97 44.73,32.01l32.31,26.51c9.11,0.45 27.79,22.89 34.7,29.64l-0.62,2.69c49.42,50.16 76.77,98.92 106.16,162.22l-1.76,1.76c-72.12,-133.98 -179.67,-209.59 -313.88,-275.13l26.82,-251.77c9.08,-86.64 17.45,-175.15 27.79,-261.52z" fill="#fefefe" id="svg_69"/>
   <path d="m756.74,579c5.28,2.43 8.34,4.25 13.22,7.22c-4.73,-0.56 -5.57,-1.45 -9.31,0.13c-4.26,7.54 -8.2,76.91 -10.63,92.04l-0.16,-0.82c-2.12,16.53 -3.52,33.14 -4.01,49.8c-0.11,3.86 -0.07,9.29 -0.62,13c-5.51,37.14 -8.33,75.48 -10.3,112.99l-0.92,0.6c-0.01,-1.75 -0.3,-3.47 -0.53,-5.21c0.17,8.89 -1.62,14.17 -2.33,22.79c-1.8,23.13 -3.84,46.23 -6.11,69.31c-0.43,4.21 -1.79,9.08 -2.2,12.62c-0.72,6.37 1.1,16.04 0.3,22.29c-1.04,8.16 -8.92,46.55 -5.95,52.28l0.6,-1.78c2.62,9.5 13.72,8.42 17.28,17.27c-6.52,-3.22 -14.9,-8.23 -21.4,-11.86c3.37,-49.11 10.23,-104.65 14.93,-154.32l28.14,-298.35z" fill="#854abb" id="svg_70"/>
   <path d="m889.3,667.19c12.54,10.93 31.94,28.56 42.58,41.37c-4.16,-1.92 -13.76,-8.61 -16.58,-12.31c-2.2,-7.78 -22.11,-16.52 -26,-29.06z" fill="#854abb" id="svg_71"/>
   <path d="m856.08,1129.18c9.11,0.45 27.79,22.89 34.7,29.64l-0.62,2.69c-11.27,-11.42 -22.22,-21.49 -34.08,-32.33z" fill="#854abb" id="svg_72"/>
   <path d="m833.06,624.52c13.19,9.11 40.25,27.84 51.74,38.99c-10.51,-1.82 -36.58,-25.17 -46.7,-31.98c-1.5,-1.01 -4.1,-5.32 -5.04,-7.01z" fill="#854abb" id="svg_73"/>
   <path d="m779.04,1070.66c15.53,2.38 31.21,19.42 43.29,29.03c0.31,0.25 1.23,2.46 1.44,2.98c-14.78,-11.04 -29.92,-21.15 -44.73,-32.01z" fill="#854abb" id="svg_74"/>
   <path d="m611.11,628.01c28.85,6.3 47.83,12.15 75.7,21.73c-0.62,6.15 -1.36,11.65 -2.29,17.77c-2.45,30.53 -6.4,61.94 -9.57,92.5l-21.28,199.87c-3.83,35.14 -9.84,77.72 -11.98,112.17c111.38,54.55 216.76,111.88 288.99,216.58c6.78,9.83 31.98,44.43 32.93,53.93l-1.14,-1.01c-5.04,-4.18 -11.51,-10.6 -16.44,-15.19c-109.21,-102.41 -274.31,-146.88 -420.02,-157.94c10.96,-61.97 20.54,-128.81 30.27,-191.26l54.83,-349.15z" fill="#66279d" id="svg_75"/>
   <path d="m611.11,628.01c28.85,6.3 47.83,12.15 75.7,21.73c-0.62,6.15 -1.36,11.65 -2.29,17.77l-21.25,-5.52c-9.57,-2.77 -19.18,-5.4 -28.82,-7.91l-5.33,36.16c-0.97,6.51 -2.87,17.03 -3.33,23.29c-6.14,38.85 -11.89,77.77 -17.24,116.74c-2.1,14.78 -7.05,42.69 -7.96,56.68c-4.76,22.61 -8.84,60.07 -12.35,83.98l-8.19,56.69c-0.96,6.82 -3.18,19.64 -3.61,26.18c-2.91,18.58 -8.38,49.89 -9.74,68.23c-1.18,4.86 -1.71,10.02 -2.38,15l0.44,2.35c5.16,2.29 29.77,5.4 37.22,6.85c11.65,2.26 24.62,4.83 36.39,7.18c25.06,7.65 47.4,12.18 73.55,21.16c82.77,28.41 178.88,82.62 236.41,149.95l-2.3,1.84c-109.21,-102.41 -274.31,-146.88 -420.02,-157.94c10.96,-61.97 20.54,-128.81 30.27,-191.26l54.83,-349.15z" fill="#fefefe" id="svg_76"/>
   <path d="m576.44,1053.8c1.62,5.49 -1.14,31.32 -2.49,37.15l-0.03,-0.5c-0.76,4.1 -4.93,29.98 -6.21,31.76l-1.01,-0.18c1.36,-18.34 6.83,-49.65 9.74,-68.23z" fill="#622b90" id="svg_77"/>
   <path d="m948.33,1324.52c3.97,4.41 11.41,12.27 14.14,17.03c-5.04,-4.18 -11.51,-10.6 -16.44,-15.19l2.3,-1.84z" fill="#edd5f7" id="svg_78"/>
   <path d="m407.82,1385.93c155.93,-28.28 344.61,-52.29 492.56,21.21c-29.92,-7.85 -51.48,-15.24 -82.98,-21.16c-100.26,-18.83 -190.76,-12.53 -291.13,-5.87l-73.49,4.88c-10.58,0.67 -27.89,1.16 -37.99,2.43l-6.97,-1.49z" fill="#fefefe" id="svg_79"/>
   <path d="m417.13,1349.46c121.22,-31.02 265.97,-48.54 387.69,-12.62c25.43,7.5 51.08,18.11 75.18,29.14l0.01,2.35c-14.6,-7.33 -43.74,-14.65 -59.81,-18.75c-130.95,-33.41 -264.97,-12.98 -397.2,1.91c-2.99,-0.37 -3.11,-0.66 -5.87,-2.03z" fill="#fefefe" id="svg_80"/>
   <path d="m405.16,1352.22l11.97,-2.76c2.76,1.37 2.88,1.66 5.87,2.03c-4.27,0.51 -11.15,1.12 -15.15,2l-2.69,-1.27z" fill="#cccdcc" id="svg_81"/>
   <path d="m414.79,1387.42c-5.6,0.64 -6.77,1 -12.16,0.02l-0.26,-0.68c1.88,-0.44 3.54,-0.59 5.45,-0.83l6.97,1.49z" fill="#9a9b9a" id="svg_82"/>
   <path d="m880,1365.98l7.07,3.26l-1.54,1.06l-5.52,-1.97l-0.01,-2.35z" fill="#cccdcc" id="svg_83"/>
   <path d="m887.07,1369.24c2.87,1.18 2.97,1.02 5.16,3.13c-3.03,0.28 -3.48,-0.58 -6.7,-2.07l1.54,-1.06z" fill="#515151" id="svg_84"/>
   <path d="m407.85,1353.49c-2.79,0.71 -3.01,0.49 -5.95,0.2l-0.21,-0.69l3.47,-0.78l2.69,1.27z" fill="#515151" id="svg_85"/>
   <path d="m148,1021.64l1.09,5.59c-18.27,119.97 38.62,267 109.67,362.26c4.94,6.62 10.32,13 14.99,19.34l-4.27,19.42c-1.65,8.22 -3.37,18.13 -5.4,26.14c3.41,2.28 39.04,3.39 45.38,3.71c1.6,1.72 3.17,3.41 4.82,5.09c119.41,129.34 253.53,195.08 430.8,202.97c79.17,3.52 171.33,-11.65 246.12,-36.83c18.62,-6.35 37.09,-13.13 55.4,-20.34c7.42,-2.85 23.16,-9.6 30.28,-11.18c22.24,-4.94 82.78,-15.46 100.28,-27.49l2.19,1.5l-13.4,8.74c-14.3,10.04 -52.12,33.21 -67.8,39.95c-36.94,22.13 -87.14,41.73 -127.85,55.52c-6.16,2.09 -23.96,7.98 -30.13,9.27c-29.01,8.06 -68.49,17.46 -98.51,20.16c-12.51,2.12 -27.56,3.17 -40.31,4.21c-47.73,2.6 -76.66,1.41 -124.26,-4.08c-10.97,-1.53 -26.58,-3.41 -36.9,-6.16c-17.28,-2.4 -41.81,-9.25 -58.45,-14.02c-22.59,-6.42 -44.44,-14.3 -66.52,-22.21l-16.81,-6.81c-2.38,2.32 -2.2,2.55 -5.37,3.22c-3.87,-1.11 -11.72,-3.11 -15.28,-0.75l-4.31,-1.15c-0.16,1.45 -0.45,1.13 0.4,2.06c95.77,104.34 232.64,180.67 372.43,204.16l-1.68,1.32l-1.59,0.06c-11.73,0.65 -21.06,0.19 -32.69,-0.42l-230.17,-0.06c-35.3,0 -97.45,1.83 -129.79,-2.54c-30.55,-4.32 -60.27,-13.22 -88.16,-26.39c-111.75,-52.48 -177.18,-165.31 -178.94,-286.9c-0.42,-29.54 -0.15,-59.17 -0.13,-88.72l0,-70.65c0.04,-6.15 0.59,-34.27 -0.38,-38.06c-3.09,-12.02 -13.03,-33.2 -18.03,-45.7c-8.99,-23.13 -17.68,-46.39 -26.05,-69.75c-1.29,-4.55 -1.39,-5.05 -3.77,-9.05c-1.35,-54.34 -0.03,-114.01 -0.1,-168.93c2.37,-4.12 2.76,-6.52 3.98,-11.11c3.03,-8.48 6.1,-16.95 9.22,-25.39z" fill="#66279d" id="svg_86"/>
   <path d="m203.02,1366.24c12.99,24.14 25.36,46.63 40.62,69.44c47.4,69.41 107.49,129.23 177.12,176.3c23.86,15.88 52.03,31.31 77.65,44.41c-2.38,2.32 -2.2,2.55 -5.37,3.22c-3.87,-1.11 -11.72,-3.11 -15.28,-0.75l-4.31,-1.15c-0.16,1.45 -0.45,1.13 0.4,2.06c95.77,104.34 232.64,180.67 372.43,204.16l-1.68,1.32l-1.59,0.06c-11.73,0.65 -21.06,0.19 -32.69,-0.42c-2.72,-0.41 -14.05,-4.17 -18.1,-5.26l-0.03,-1.03c-14.54,-3.09 -29.25,-5.54 -43.71,-8.98c-50.1,-12.06 -98.98,-28.71 -146.02,-49.75c-193.78,-88.31 -326.62,-232.7 -400.85,-431.39l1.41,-2.24z" fill="#ddacfb" id="svg_87"/>
   <path d="m792.19,1858.6c12.8,1.79 38.68,6.1 50.82,6.71c-11.73,0.65 -21.06,0.19 -32.69,-0.42c-2.72,-0.41 -14.05,-4.17 -18.1,-5.26l-0.03,-1.03z" fill="#622b90" id="svg_88"/>
   <path d="m1098.15,1620.51c0.05,-0.29 0.06,-0.58 0.15,-0.86c0.82,-2.77 58.79,-35.84 65.71,-40.15l1.94,1.06c-14.3,10.04 -52.12,33.21 -67.8,39.95z" fill="#622b90" id="svg_89"/>
   <path d="m201.61,1368.48c-1.42,-3.6 -1.45,-3.97 -2.11,-7.82l0.91,0.29l2.61,5.29l-1.41,2.24z" fill="#c99ae9" id="svg_90"/>
   <path d="m1861.19,1257.87l2.37,0.26l-1.17,7.94c2.7,4.09 1.32,49.93 1.32,58.84l0.06,114.93c-0.02,6.44 -0.81,44.42 1.01,47.91c0.18,29.53 1.28,58.92 -1.51,88.34c-16.1,169.68 -145.67,288.57 -315.13,288.78l-185.16,-0.09l-54.76,0.01c-7.91,0 -28.67,-0.44 -35.26,0.79c-16.31,3.04 -35.37,9.88 -52.02,13.79c-33.74,7.68 -67.77,14.09 -101.99,19.21l-1.36,-1.99c18.53,-4.93 67.21,-25.49 84.94,-33c131.88,-55.9 295.54,-175.32 349.21,-313.7c14.96,-22.78 26.17,-56.19 34.58,-82.14c8.97,-1.28 27.04,-1.91 36.69,-2.53l74.21,-4.77c0.77,-0.39 26.16,-1.56 29.03,-1.72c9.22,-1.46 30.68,-2.23 40.83,-2.9l18.23,-0.88c-1.17,-4 -1.8,-8.23 -2.54,-12.35c-0.57,-0.92 -1.14,-4.02 -1.42,-5.28c1.99,-1.99 2,-2.48 3.27,-5.07c7.32,-9 18.73,-30.83 24.2,-41.34c22.82,-43.77 40.12,-85.2 52.37,-133.04z" fill="#66279d" id="svg_91"/>
   <path d="m1861.19,1257.87l2.37,0.26l-1.17,7.94c-31.81,186 -135.54,340.2 -289,448.64c-70.49,50.52 -147.5,91.22 -228.95,121l-0.82,-2.09c0.72,-0.33 1.44,-0.67 2.15,-1.02c20.35,-9.86 48.2,-27.31 67.14,-39.71c107.46,-70.33 205.68,-169.82 264.2,-284.8c6.3,-12.36 16.73,-33.41 21.24,-46.28l-1.13,-1.36c0.77,-0.39 26.16,-1.56 29.03,-1.72c9.22,-1.46 30.68,-2.23 40.83,-2.9l18.23,-0.88c-1.17,-4 -1.8,-8.23 -2.54,-12.35c-0.57,-0.92 -1.14,-4.02 -1.42,-5.28c1.99,-1.99 2,-2.48 3.27,-5.07c7.32,-9 18.73,-30.83 24.2,-41.34c22.82,-43.77 40.12,-85.2 52.37,-133.04z" fill="#ddacfb" id="svg_92"/>
   <path d="m1726.25,1458.73c9.22,-1.46 30.68,-2.23 40.83,-2.9l0.54,1.68c-9.73,12.02 -18.64,25.38 -28.42,37.43c-26.48,32.62 -63.08,75.27 -96.1,101.32l-0.37,-1.59c-0.4,0.56 -0.89,1.66 -1.22,2.33c0.22,-0.44 0.43,-0.87 0.65,-1.3c27.34,-35.24 51.45,-73.37 72.35,-112.79c4.06,-7.66 8.32,-16.15 11.74,-24.18z" fill="#b06ce7" id="svg_93"/>
   <path d="m1782.77,1442.6c11.06,14.03 -4.05,19.17 -15.15,14.91l-0.54,-1.68l18.23,-0.88c-1.17,-4 -1.8,-8.23 -2.54,-12.35z" fill="#ddacfb" id="svg_94"/>
   <path d="m1332.8,1839.75c4.13,-2.7 6.38,-3.97 10.82,-6.13l0.82,2.09c-3.62,1.48 -7.88,2.78 -11.64,4.04z" fill="#aa70d8" id="svg_95"/>
   <path d="m1729.57,834.9c7.47,14.57 14.5,29.35 21.11,44.33c2.16,0.56 1.73,-0.01 3.02,2.4c5.84,10.84 9.02,22.99 13.49,34.49c42.8,110.19 48.75,238.87 27.67,354.36c-1.81,9.9 -4.37,27.32 -7,36.41c-4.19,14.49 -13.14,52.18 -17.4,63.38c-1.05,2.77 11.37,56.79 12.69,60.72l1.47,1.26c-1.27,2.59 -1.28,3.08 -3.27,5.07c0.28,1.26 0.85,4.36 1.42,5.28c0.74,4.12 1.37,8.35 2.54,12.35l-18.23,0.88c-10.15,0.67 -31.61,1.44 -40.83,2.9c-2.87,0.16 -28.26,1.33 -29.03,1.72l-74.21,4.77c-9.65,0.62 -27.72,1.25 -36.69,2.53c-3.25,0.19 -27.18,1.21 -28.09,1.73c-22.49,1.62 -50.19,2.56 -72.02,4.97l-1.7,2.84c-9.51,2.5 -41.74,2.12 -45.85,4.47c-12.83,7.36 -32.33,30 -45.43,41.17c-28.28,24.28 -57.85,47.02 -88.58,68.12c-4.81,3.25 -9.47,5.53 -14.39,8.37c-3.6,2.54 -6.54,6.53 -10.38,8.76c-103.39,59.97 -215.12,112.48 -333.8,132.39c-141.28,23.69 -288.06,8.11 -417.35,-55.32c-8.03,-3.94 -48.46,-21.16 -50.6,-25.47l-0.37,-0.92c3.56,-2.36 11.41,-0.36 15.28,0.75c3.17,-0.67 2.99,-0.9 5.37,-3.22l16.81,6.81c22.08,7.91 43.93,15.79 66.52,22.21c16.64,4.77 41.17,11.62 58.45,14.02c10.32,2.75 25.93,4.63 36.9,6.16c47.6,5.49 76.53,6.68 124.26,4.08c12.75,-1.04 27.8,-2.09 40.31,-4.21c30.02,-2.7 69.5,-12.1 98.51,-20.16c6.17,-1.29 23.97,-7.18 30.13,-9.27c40.71,-13.79 90.91,-33.39 127.85,-55.52c15.68,-6.74 53.5,-29.91 67.8,-39.95l13.4,-8.74c7.34,-5.14 37.23,-15.78 47.91,-20.93c32.58,-15.71 69.15,-34.4 98.74,-55.12c25.57,-14.79 50.03,-34.74 74.12,-51.79c3.04,-2.15 6.22,-3.95 10,-3.2l0.57,1.21l-3.42,5.02c-0.24,3.07 -0.38,2.1 0.26,5.03c2.31,-0.61 1.72,-0.38 3.93,-1.49l0.68,1.54c9.15,-5.3 21.09,-13.63 31.8,-13.76c2.85,-0.04 4.18,-0.11 6.86,-0.8c-1.61,-0.22 -1.48,-0.29 -3.02,-0.89c1.36,-2.35 9.95,-8.67 13,-11.3c13.42,-7.77 38.34,-35.16 52.42,-44.55c1.88,-1.25 4.99,-1.05 7.31,-0.97c-2.17,-0.46 -2.24,-0.52 -4.3,-1.28c0.63,-3.57 7.19,-8.65 10.36,-11.68c5.45,-5.48 11.54,-11.35 16.54,-17.15c3.04,-2.92 4.9,-5.05 8.59,-7.1c0.47,-3.57 5.46,-7.96 8.38,-10.01c0.76,-2.55 18.9,-22.56 22.03,-25.74c0.95,-2.84 13.92,-17.95 16.9,-21.61c9.91,-12.07 19.55,-24.37 28.91,-36.87c2.69,-3.57 12.77,-17.92 15.66,-19.16c0.53,-2.66 37.77,-55.99 42.09,-62.55c1.98,-4.12 28.11,-47.6 29.96,-48.5c1.09,7.37 2.72,14.56 3.78,21.69c4.73,-24.58 16.18,-54.99 22.64,-79.06c-0.25,-7.33 1.76,-14.35 3.59,-21.38c3.7,-14.21 5,-28.82 6.31,-43.41l0.07,0.48c0.87,-5.11 0.49,-11.78 0.42,-17.09c-4.37,9.67 -8.12,28.82 -14.71,34.84c-1.28,2.48 -2.8,5.6 -4.18,7.95c-13.44,-38.29 -28.1,-71.37 -48.88,-106.2c-2.29,-4.55 -4.43,-7.59 -7.25,-11.79c1.48,-2.89 4.91,-6.69 7.08,-9.35c4.19,-4.42 7.51,-8.84 11.23,-13.64c5.69,-4.7 27.75,-37.85 33.84,-46.31z" fill="#fefefe" id="svg_96"/>
   <path d="m1643.58,1229.22c0.53,-2.66 37.77,-55.99 42.09,-62.55c17.84,83.87 35.2,167.84 52.08,251.91l-178.55,11.72c-34.37,2.18 -74.66,3.72 -108.4,7.23c-1.61,-0.22 -1.48,-0.29 -3.02,-0.89c1.36,-2.35 9.95,-8.67 13,-11.3c13.42,-7.77 38.34,-35.16 52.42,-44.55c1.88,-1.25 4.99,-1.05 7.31,-0.97c-2.17,-0.46 -2.24,-0.52 -4.3,-1.28c0.63,-3.57 7.19,-8.65 10.36,-11.68c5.45,-5.48 11.54,-11.35 16.54,-17.15c3.04,-2.92 4.9,-5.05 8.59,-7.1c0.47,-3.57 5.46,-7.96 8.38,-10.01c0.76,-2.55 18.9,-22.56 22.03,-25.74c0.95,-2.84 13.92,-17.95 16.9,-21.61c9.91,-12.07 19.55,-24.37 28.91,-36.87c2.69,-3.57 12.77,-17.92 15.66,-19.16z" fill="#000000" id="svg_97"/>
   <path d="m1582.11,1306.86c0.95,-2.84 13.92,-17.95 16.9,-21.61c9.91,-12.07 19.55,-24.37 28.91,-36.87c2.69,-3.57 12.77,-17.92 15.66,-19.16c6.13,30.39 11.95,67.03 18.82,96.58c-26.08,-6.18 -54.29,-13.66 -80.29,-18.94z" fill="#fefefe" id="svg_98"/>
   <path d="m1526.57,1366.86c32.04,4.37 78.1,11.1 110.21,18.41l-0.79,2.16c-38.48,-2.73 -76.97,-5.26 -115.48,-7.61c-2.17,-0.46 -2.24,-0.52 -4.3,-1.28c0.63,-3.57 7.19,-8.65 10.36,-11.68z" fill="#fefefe" id="svg_99"/>
   <path d="m1560.08,1332.6c25.24,5.17 50.31,11.11 75.19,17.8l-1.44,2.05c-26.8,-3.82 -55.01,-6.35 -82.13,-9.84c0.47,-3.57 5.46,-7.96 8.38,-10.01z" fill="#fefefe" id="svg_100"/>
   <path d="m1636.78,1385.27c3.63,0.62 5.91,0.35 8.31,2.35c-3.29,0.95 -5.68,0.28 -9.1,-0.19l0.79,-2.16z" fill="#cccdcc" id="svg_101"/>
   <path d="m1635.27,1350.4l6.96,1.61l-1.74,1.46l-6.66,-1.02l1.44,-2.05z" fill="#cccdcc" id="svg_102"/>
   <path d="m1642.23,1352.01l3.65,1.05l-0.16,0.73c-2.3,-0.02 -3.04,0.12 -5.23,-0.32l1.74,-1.46z" fill="#515151" id="svg_103"/>
   <path d="m1743.97,1058.13c4.69,12.69 9.99,38.21 12.14,52.04c9.68,48.4 10.34,113.34 4.86,162.51c-0.28,2.91 -0.89,11.12 -1.63,13.47c-3.3,2.65 -3.69,10.62 -4.46,15.26c-2.47,-10.97 -10.85,-58.98 -14.98,-63.77c-7.43,-28.77 -13.91,-67.74 -20.49,-97.78c4.73,-24.58 16.18,-54.99 22.64,-79.06l1.92,-2.67z" fill="#66279d" id="svg_104"/>
   <path d="m1760.97,1272.68c-1.31,-0.09 -0.48,0.04 -2.4,-0.7c1,-2.65 4.58,-72.01 3.56,-77.86c-2.1,-12.15 -0.58,-36.03 -2.64,-49.07c-1.26,-8.01 -4.11,-24.28 -5.36,-34.26l1.98,-0.62c9.68,48.4 10.34,113.34 4.86,162.51z" fill="#622b90" id="svg_105"/>
   <path d="m1435.43,1477.9l50.78,-3.45l-1.7,2.84c-9.51,2.5 -41.74,2.12 -45.85,4.47c-12.83,7.36 -32.33,30 -45.43,41.17c-28.28,24.28 -57.85,47.02 -88.58,68.12c-4.81,3.25 -9.47,5.53 -14.39,8.37c-3.6,2.54 -6.54,6.53 -10.38,8.76c-103.39,59.97 -215.12,112.48 -333.8,132.39c-141.28,23.69 -288.06,8.11 -417.35,-55.32c-8.03,-3.94 -48.46,-21.16 -50.6,-25.47l6.54,1.91c28.17,11.8 55.66,26.45 85.52,38.66c75.21,30.07 155.25,46.23 236.24,47.68c138.54,2.24 263.24,-33.41 386.38,-95.36c59.47,-29.52 115.7,-65.17 167.75,-106.38c26.18,-20.9 50.82,-45.1 74.87,-68.39z" fill="#aa70d8" id="svg_106"/>
   <path d="m1750.68,879.23c2.16,0.56 1.73,-0.01 3.02,2.4c5.84,10.84 9.02,22.99 13.49,34.49c42.8,110.19 48.75,238.87 27.67,354.36c-1.81,9.9 -4.37,27.32 -7,36.41c-4.19,14.49 -13.14,52.18 -17.4,63.38c-1.05,2.77 11.37,56.79 12.69,60.72l1.47,1.26c-1.27,2.59 -1.28,3.08 -3.27,5.07l-14.08,-67.17c9.92,-26.65 18.92,-67.23 24.04,-95.12c17.97,-98.1 17.01,-204.46 -8.11,-301.32c-8.52,-32.86 -19.77,-63.14 -32.52,-94.48z" fill="#aa70d8" id="svg_107"/>
   <path d="m1752.42,968.26l2.72,2.9c-0.16,18.67 -0.5,33.05 -3.78,51.65c-1.31,7.48 -7.34,29.28 -7.39,35.32l-1.92,2.67c-0.25,-7.33 1.76,-14.35 3.59,-21.38c3.7,-14.21 5,-28.82 6.31,-43.41l0.07,0.48c0.87,-5.11 0.49,-11.78 0.42,-17.09c-4.37,9.67 -8.12,28.82 -14.71,34.84c6.11,-16.34 10.54,-29.06 14.69,-45.98z" fill="#aa70d8" id="svg_108"/>
   <path d="m1739.9,1237.64c4.13,4.79 12.51,52.8 14.98,63.77c0.77,-4.64 1.16,-12.61 4.46,-15.26c-0.58,9.17 -2.21,18.47 -3.63,27.58c-2.16,-7.25 -4.52,-20.44 -6.13,-28.13c-3.43,-15.95 -6.66,-31.93 -9.68,-47.96z" fill="#622b90" id="svg_109"/>
   <path d="m498.41,1656.39l16.81,6.81c-10.07,0.35 -22.84,-2.33 -30.55,-1.51l-6.54,-1.91l-0.37,-0.92c3.56,-2.36 11.41,-0.36 15.28,0.75c3.17,-0.67 2.99,-0.9 5.37,-3.22z" fill="#ddacfb" id="svg_110"/>
   <path d="m1407.27,1447.01c-0.24,3.07 -0.38,2.1 0.26,5.03c2.31,-0.61 1.72,-0.38 3.93,-1.49l0.68,1.54c-7.97,5.74 -13.39,9.89 -20.78,16.34c4.2,-6.46 11.13,-15.08 15.91,-21.42z" fill="#c99ae9" id="svg_111"/>
   <path d="m1752.42,968.26l1.01,-4.96l0.96,-0.35c0.89,3.76 0.83,4.29 0.75,8.21l-2.72,-2.9z" fill="#aea2b7" id="svg_112"/>
   <path d="m1161.8,186.62c20.78,-1.53 47.64,-0.8 69.02,-0.81l114.12,0l137.41,-0.02c47.25,0 89.29,-2.65 135.68,8.29c49.4,11.71 95.24,35.2 133.61,68.45c65.71,56.91 106.07,137.64 112.18,224.35c2.74,37.58 1.15,95.81 1.02,134.72c-1.06,11.63 -0.65,30.72 -0.67,42.9l-0.04,75.99c0,8.41 0.64,32.22 -1.04,39.16c-7.17,-27.18 -15.68,-53.99 -25.5,-80.32c-4.44,-12.02 -11.54,-25.6 -14.81,-37.28c-1.74,-6.22 -0.77,-24.69 -0.64,-32.04c0.32,-12.32 0.05,-24.64 -0.81,-36.93c-1.37,-18.57 -3.1,-37.98 -6.22,-56.33c-2.23,-13.11 -5.81,-25.36 -7.72,-38.72c-0.25,16.72 -1.56,75.52 -8.08,88.09c-11.4,-72.45 -43.23,-116.67 -100.53,-159.24c-19.6,-12.98 -32.21,-19.9 -53.19,-30.21c-44.87,-19.21 -91.75,-33.34 -139.77,-42.13c1.2,-1.8 1.01,-1.75 1.75,-3.84c-3.93,-2.79 0.38,2.06 -5.76,-1.25c-4.6,-5.61 -11,-10.49 -16.62,-15.12c-10.96,-10.43 -37.27,-27.28 -50.14,-35.6c-83.91,-54.25 -167.42,-86.23 -264.3,-108.14l1.37,-2.68c-3.86,-0.88 -6.34,-0.99 -10.32,-1.29z" fill="#66279d" id="svg_113"/>
   <path d="m1172.12,187.91c146.84,12.46 288.83,76.16 411.64,154.58c15.39,12.97 52.38,37.71 61.83,54.18c-44.87,-19.21 -91.75,-33.34 -139.77,-42.13c1.2,-1.8 1.01,-1.75 1.75,-3.84c-3.93,-2.79 0.38,2.06 -5.76,-1.25c-4.6,-5.61 -11,-10.49 -16.62,-15.12c-10.96,-10.43 -37.27,-27.28 -50.14,-35.6c-83.91,-54.25 -167.42,-86.23 -264.3,-108.14l1.37,-2.68z" fill="#ddacfb" id="svg_114"/>
   <path d="m1602.83,313.36c98.48,17.58 182.75,84.55 204.56,184.67c-0.25,16.72 -1.56,75.52 -8.08,88.09c-11.4,-72.45 -43.23,-116.67 -100.53,-159.24c0.97,-6.07 0.98,-13.73 1.17,-20.01c-2.35,-40.34 -66.72,-77.36 -99.72,-91.56l2.6,-1.95z" fill="#ddacfb" id="svg_115"/>
   <path d="m1583.76,342.49c32.84,13.69 68.42,34.96 98.66,53.84c3.34,2.08 14.63,9.96 17.53,10.54c-0.19,6.28 -0.2,13.94 -1.17,20.01c-19.6,-12.98 -32.21,-19.9 -53.19,-30.21c-9.45,-16.47 -46.44,-41.21 -61.83,-54.18z" fill="#b06ce7" id="svg_116"/>
   <path d="m1600.23,315.31c-2.67,-0.86 -3.68,-0.95 -5.9,-2.67c2.89,-1.04 5.38,-0.01 8.5,0.72l-2.6,1.95z" fill="#aa70d8" id="svg_117"/>
   <path d="m183.84,497.6c3.28,-87.02 41.18,-169.11 105.28,-228.05c51.47,-47.86 117.55,-77.02 187.6,-82.78c31.32,-2.61 83.54,-0.99 115.89,-0.97l187.41,-0.06c-14.65,6.8 -31.59,13.04 -46.68,19.29c-21.49,8.91 -42.69,18.48 -63.57,28.72c-139.24,68.5 -276.29,169.01 -365.36,297.89c-10.97,15.88 -55.56,85.48 -58.95,102.27c-29.01,59.65 -49.16,123.22 -59.79,188.69l-0.94,-0.17c-1.27,-5.34 -0.66,-74.04 -0.65,-83l-0.02,-151.91c0.01,-29.32 0.57,-60.74 -0.22,-89.92z" fill="#66279d" id="svg_118"/>
   <path d="m432.56,450.18l1.35,-1.32c9.24,-9.13 20.9,-23.68 30.39,-33.76c18.45,-19.3 37.71,-37.83 57.71,-55.53c74.03,-66.1 186.67,-136.06 282.03,-173.36c4.96,-1.93 34.13,-2.36 41.51,-2.62c-155.42,62.86 -281.48,146.94 -380.44,284.98c-93.05,129.81 -142.72,298.75 -106.03,456.96c1.34,6.03 4.7,21 8.37,25.41l1.57,1.06c-9.15,44.54 -19.38,89.52 -28.11,133.96c-13.23,-27.67 -24.16,-54.01 -32.25,-83.78c2.05,-6.83 -7.13,-34.63 -8.57,-42.78c-9.35,-52.8 -14.44,-103.52 -11.11,-157.2c0.72,-11.6 8.21,-67.6 6.53,-71.21c5.27,-31.11 14.82,-62.04 25.29,-91.74c30.78,-80.39 57,-122.53 111.76,-189.07z" fill="#66279d" id="svg_119"/>
   <path d="m993.89,252.12l-0.07,1.47c-25.56,4.86 -63.68,16.7 -88.18,25.6c-118.18,42.93 -230.21,108.61 -301.94,214.23c-10.88,15.8 -20.7,32.31 -29.4,49.41l-1.56,2.74c-7.27,-1.5 -14.52,-3.03 -21.77,-4.6l-9.61,51.8c-2.38,13.56 -5.36,40.07 -14.77,49.35c-12.23,12.07 -21.19,16.27 -32.65,31.25c-4.25,1.23 -60.76,1.53 -66.62,0.34c-2.27,11.96 -5.42,29.79 -8.72,41.33c-2.79,15.62 -7.35,38.24 -11.25,53.67l-0.24,0.65c-2.91,18.02 -7.94,40.16 -11.99,58.14c-1.04,5.97 -7.93,42.26 -9.67,46.43c-3.42,21.07 -9.02,42.41 -13.14,63.4c-0.87,4.48 -2.03,10.31 -3.29,14.67l-1.57,-1.06c-3.67,-4.41 -7.03,-19.38 -8.37,-25.41c3.2,-17.11 4.2,-32.62 8.97,-49.91c8.41,-132.47 39.62,-225.43 119.3,-333.09c122.12,-164.99 304.72,-261.46 506.54,-290.41z" fill="#66279d" id="svg_120"/>
   <path d="m359.08,925.53c3.2,-17.11 4.2,-32.62 8.97,-49.91c0.14,21.4 -1.53,46.17 0,66.93c-0.16,2.41 -0.3,6.11 -0.6,8.39c-3.67,-4.41 -7.03,-19.38 -8.37,-25.41z" fill="#854abb" id="svg_121"/>
   <path d="m368.05,942.55c1.88,-7.67 -0.38,-13.93 3.12,-21.33l0.81,1.12c-0.82,2.73 -1.27,3.1 -0.69,5.79c5.52,-15.33 8.46,-43.63 12.52,-54.24l1.64,0.04c-3.42,21.07 -9.02,42.41 -13.14,63.4c-0.87,4.48 -2.03,10.31 -3.29,14.67l-1.57,-1.06c0.3,-2.28 0.44,-5.98 0.6,-8.39z" fill="#622b90" id="svg_122"/>
   <path d="m1558.23,1469.48l2.2,1.16c-17.71,33.17 -33.8,56.32 -55.64,87.28l-0.74,0.74c-13.02,13.23 -22.21,26.12 -36.74,39.79c-88.58,83.35 -187.04,146.23 -304.82,179.01c-18.09,4.95 -36.39,9.07 -54.86,12.35c-9.23,1.66 -23.71,3.58 -32.4,5.71l-1.49,-1.99c18.67,-2.77 57.89,-14.97 75.99,-21.19c119.89,-41.19 228.45,-117.56 297.38,-225.14c14.59,-22.77 25.6,-45.65 37.4,-69.91l1.7,-2.84c21.83,-2.41 49.53,-3.35 72.02,-4.97z" fill="#66279d" id="svg_123"/>
   <path d="m245.46,633.91c0.04,1.82 -0.33,5.34 -0.47,7.28l0.76,0.36c12.01,-25.88 36.59,-59.13 54.13,-81.65c34.43,-44.21 75.38,-87.09 118.91,-122.35c5.67,-4.6 11.21,-14.55 18.71,-13.89l0.23,1.33c-3.4,5.58 -8.2,8.46 -12.07,13.53c-15.47,20.26 -30.66,40.72 -41.93,63.71c-1.88,3.85 -2.09,8 -4.75,11.55c-1.54,2.07 -2.52,4.53 -3.36,6.94l0.55,1.01c2.68,-2.36 2.56,-2.16 4.36,-5.16c13.5,-22.59 33.2,-46.53 49.98,-66.73l2.05,0.34c-54.76,66.54 -80.98,108.68 -111.76,189.07l0.09,-1.21c0.47,-5.67 1.03,-7.88 2.39,-13.29c-7.9,4.73 -14.65,15.1 -20.4,22.59c3.88,-12.95 13.43,-32.76 19.39,-45.41c1.98,-3.36 2.24,-4.12 3.51,-7.86c0.79,-8.29 9.87,-24.36 14.15,-32.61c-16.13,14.55 -28.93,30.97 -42.53,47.76c-0.63,0.78 -2.15,1.31 -3.05,1.67c-42.27,52.18 -95.23,150.56 -107.1,217.09l-2.43,3.08l0.85,-8.46c10.63,-65.47 30.78,-129.04 59.79,-188.69z" fill="#ddacfb" id="svg_124"/>
   <path d="m294.35,610.89c13.16,-20.22 37.9,-45.57 54.69,-62.93c-7.87,15.28 -15.23,30.93 -23.26,46.11c0.79,-8.29 9.87,-24.36 14.15,-32.61c-16.13,14.55 -28.93,30.97 -42.53,47.76c-0.63,0.78 -2.15,1.31 -3.05,1.67z" fill="#aa70d8" id="svg_125"/>
   <path d="m1841.39,290.97c5.64,6.27 13.87,19.3 18.35,26.79c25.23,41.99 41.92,88.55 49.14,137.01c4.86,32.75 4.34,57.55 4.33,90.5l-0.04,80.04l0,282.93l0.03,435.17l0.05,143.09c0.01,13.73 -0.44,28.41 0,42.06c3.61,112.53 -38.96,220.52 -123.62,295.75c-48.47,43.07 -107.84,71.99 -171.64,83.57c-34.19,6.02 -59.74,5.2 -94.25,5.2l-85.92,0l-294.18,-0.03l-448.32,-0.01l-144,0.04c-25.84,0.01 -57.52,0.9 -82.81,-0.64c-93.22,-6.49 -180.08,-49.67 -241.52,-120.09c-54.66,-62.12 -85.45,-141.05 -91.36,-223.22c-1.32,-18.31 -0.83,-39.25 -0.84,-57.79l-0.01,-88.75l0.01,-128.27c0,-21.71 -0.53,-45.77 0.11,-67.25c2.38,4 2.48,4.5 3.77,9.05c-1.59,2.55 -1.57,6.85 -1.58,9.85l0.34,213.74c0.13,34.31 -1.43,73.01 0.66,106.91c7.33,118.88 69.54,229.97 172.15,292.04c69.7,42.16 122.55,51.65 202.55,51.74c26.54,0.1 53.07,0.04 79.59,-0.2l220.6,0.17l483.52,-0.16l174.96,-0.08c77.61,-0.19 139.94,6.15 214.39,-24.43c126.14,-51.81 209.14,-167.71 222.99,-302.69c2.85,-27.74 1.81,-55.61 1.74,-83.41l0.19,-107.87l-0.17,-341.81l-0.04,-406.38l0.22,-101.43c-0.02,-29.25 0.28,-53.53 -3.59,-82.66c-6.2,-44.22 -20.33,-86.96 -41.7,-126.16c-4.39,-8.17 -22.94,-35.96 -24.1,-42.32z" fill="#aa70d8" id="svg_126"/>
   <path d="m134.8,1058.14l0.11,-378.16l-0.07,-114.83c-0.03,-48.86 -1.61,-86.04 8.82,-134.21c21.3,-97.46 80.31,-182.53 164.15,-236.6c46.17,-29.78 98.48,-48.72 153,-55.41c27.99,-3.48 52.3,-2.81 80.43,-2.82l96.37,0.04l323.21,0l407.58,0l120.78,-0.03c48.31,-0.02 82.56,-2.09 129.89,8.17c71.6,15.39 136.99,51.77 187.81,104.5c10.55,10.91 23.65,25.57 31.78,38.18c-4.97,-2.26 -27.62,-29.83 -33.72,-36.27c-59.05,-62.41 -139.97,-100.23 -224.89,-110.55c-21.28,-2.59 -52.96,-0.91 -74.76,-0.79l-75.69,-0.17l-326.12,0.23l-412.32,-0.07l-142,-0.11c-55.7,-0.06 -89.11,-1.43 -143.6,13.97c-141.72,40.06 -246.22,165.17 -264.81,310.69c-3,23.39 -2.96,45.5 -3.16,69.1c-0.19,30.82 -0.11,61.64 0.25,92.46l0.02,205.54l-0.18,162.18c0.04,7.26 -0.33,51.58 1.1,53.85c-1.22,4.59 -1.61,6.99 -3.98,11.11z" fill="#aa70d8" id="svg_127"/>
   <path d="m186.4,1074.87c17.59,86.69 53.2,175.06 105.13,247.14c-3.31,17.06 -6.73,34.11 -10.25,51.13c-11.65,-16.58 -22.84,-37.6 -32.31,-55.53c-42.96,-81.37 -59.16,-151.26 -64.24,-242.37l1.67,-0.37z" fill="#ddacfb" id="svg_128"/>
   <path d="m1558.23,1469.48c0.91,-0.52 24.84,-1.54 28.09,-1.73c-8.41,25.95 -19.62,59.36 -34.58,82.14c-6.19,6.65 -9.79,14.8 -15.67,21.29c-35.26,38.66 -77.09,70.77 -123.55,94.83c27.98,-26.71 49.6,-50.94 73.42,-81.89c4.59,-5.96 15.93,-19.99 18.85,-26.2c21.84,-30.96 37.93,-54.11 55.64,-87.28l-2.2,-1.16z" fill="#ddacfb" id="svg_129"/>
   <path d="m297.32,1294.23c-2.62,-10.14 8.71,-49.17 10.45,-61.27c0.4,-2.72 3.33,-13.89 2.65,-15.69c-5.02,-13.22 -12.37,-28.49 -17.65,-41.62c-8.78,-21.54 -16.61,-43.46 -23.46,-65.7c-10.01,-32.73 -17.14,-70.23 -22.07,-104.09c-0.98,-10.09 -1.39,-20.22 -2.07,-30.33c-0.7,-10.33 -2.19,-20.63 -2.61,-30.98c-2.96,-81.18 9.01,-162.21 35.31,-239.07c4.89,-14.11 35.16,-99.07 44.4,-103.55c-5.96,12.65 -15.51,32.46 -19.39,45.41c-13.61,33.08 -24.89,62.26 -34.3,96.95c-39.17,144.41 -28.83,297.78 29.35,435.63c5.01,12.04 10.26,23.97 15.74,35.8c-5.74,25.86 -10.39,52.95 -16.35,78.51z" fill="#aa70d8" id="svg_130"/>
   <path d="m183.72,831.89c-1.46,-5.09 -0.64,-42.84 -0.64,-49.81l0.06,-131.59l-0.1,-99.4c-0.01,-12.7 -0.67,-41.94 0.8,-53.49c0.79,29.18 0.23,60.6 0.22,89.92l0.02,151.91c-0.01,8.96 -0.62,77.66 0.65,83l0.94,0.17l-0.85,8.46l-1.1,0.83z" fill="#854abb" id="svg_131"/>
   <path d="m1864.11,1255.18c2.52,9.78 0.76,73.8 0.77,87.29l0.05,96.13c0.01,14.17 0.65,35.58 -0.15,49.15c-1.82,-3.49 -1.03,-41.47 -1.01,-47.91l-0.06,-114.93c0,-8.91 1.38,-54.75 -1.32,-58.84l1.17,-7.94l0.55,-2.95z" fill="#622b90" id="svg_132"/>
   <path d="m1863.09,779.65c1.68,-6.94 1.04,-30.75 1.04,-39.16l0.04,-75.99c0.02,-12.18 -0.39,-31.27 0.67,-42.9c0.41,15.12 1.45,155.48 -0.6,161.71c-1.52,-2 -0.95,-0.88 -1.15,-3.66z" fill="#8746c3" id="svg_133"/>
   <path d="m1170.75,190.59c-7.18,-0.75 -20.16,-1.6 -25.13,-5.58c4.14,1.47 11.78,1.92 16.18,1.61c3.98,0.3 6.46,0.41 10.32,1.29l-1.37,2.68z" fill="#ddacfb" id="svg_134"/>
   <path d="m1861.19,1257.87c1.05,-5.54 1.9,-10.62 3.54,-16.04c0.84,2.72 -0.31,10.03 -0.62,13.35l-0.55,2.95l-2.37,-0.26z" fill="#c99ae9" id="svg_135"/>
   <path d="m1062.63,1795.29c3.71,-0.52 7.42,-1.11 11.11,-1.76l1.49,1.99c-3.82,0.56 -8.31,1.09 -12.04,1.85l-0.56,-2.08z" fill="#8746c3" id="svg_136"/>
   <path d="m187.25,827.98l-2.64,12.16l-0.76,0.17c-0.11,-2.8 -0.15,-5.61 -0.13,-8.42l1.1,-0.83l2.43,-3.08z" fill="#c99ae9" id="svg_137"/>
   <path d="m1118.95,1898.58c-3.35,0.89 -6.65,2.09 -10.03,1.7c1.68,-1.79 6.01,-2.81 8.67,-3.69l1.36,1.99z" fill="#8746c3" id="svg_138"/>
   <path d="m846.28,1863.93c3.48,0.34 5.13,0.24 8.29,1.84c-2.62,1.26 -7.18,0.25 -9.97,-0.52l1.68,-1.32z" fill="#c99ae9" id="svg_139"/>
   <path d="m148,1021.64c1.13,-2.22 1.03,-3.18 2.51,-3.74c-0.27,4.21 -0.4,5.22 -1.42,9.33l-1.09,-5.59z" fill="#8746c3" id="svg_140"/>
   <path d="m184.73,1075.24c-0.53,-3.04 -1.12,-4.55 -0.03,-7.43c1.87,2.31 1.33,3.48 1.7,7.06l-1.67,0.37z" fill="#c99ae9" id="svg_141"/>
   <path d="m993.89,252.12c3.38,-0.96 4.24,-1.43 7.77,-0.93c-1.65,1.96 -4.92,2.05 -7.84,2.4l0.07,-1.47z" fill="#854abb" id="svg_142"/>
   <path d="m1063.19,1797.37c-2.81,0.38 -2.66,0.39 -5.44,-0.18c2.13,-2.03 1.22,-1.15 4.88,-1.9l0.56,2.08z" fill="#aa70d8" id="svg_143"/>
  </symbol>
 </defs>
 <g class="layer" display="inline">
  <title>Layer 1</title>
  <use href="#svg_153" id="svg_154" transform="matrix(1.09331, 0, 0, 1.09331, -95.5231, -94.8431)"/>
 </g>
</svg>